<?xml version="1.0" encoding="utf-8"?>
<!-- Generator: Adobe Illustrator 15.0.2, SVG Export Plug-In . SVG Version: 6.00 Build 0)  -->
<!DOCTYPE svg PUBLIC "-//W3C//DTD SVG 1.1//EN" "http://www.w3.org/Graphics/SVG/1.1/DTD/svg11.dtd">
<svg version="1.1" id="Capa_1" xmlns="http://www.w3.org/2000/svg" xmlns:xlink="http://www.w3.org/1999/xlink" x="0px" y="0px"
	 width="103px" height="106px" viewBox="441.5 313.5 103 106" enable-background="new 441.5 313.5 103 106" xml:space="preserve">
<g>
	<g>
		<g>
			<path fill="#FFFFFF" d="M457.682,411.002c-4.236,0-7.682-3.446-7.682-7.682v-47.046c0-0.475,0.224-0.932,0.598-1.222
				l-0.119,0.066c0.458-0.288,11.491-8.941,11.604-9.03l0.191-0.15v-16.257c0-4.236,3.446-7.682,7.682-7.682h38.864
				c0.413,0,0.801,0.161,1.093,0.453l16.365,16.364c0.292,0.292,0.453,0.68,0.453,1.093v6.029l0.191,0.15
				c6.343,4.98,11.477,8.961,11.513,8.985c0.35,0.272,0.566,0.718,0.568,1.201v47.046c0,4.235-3.446,7.682-7.682,7.682H457.682z
				 M453.091,403.32c0,2.531,2.06,4.591,4.591,4.591h73.639c2.531,0,4.591-2.06,4.591-4.591v-43.893l-0.807,0.627
				c-8.211,6.381-28.101,21.925-35.438,28.419c-1.508,1.336-3.365,2.072-5.229,2.072c-1.846,0-3.632-0.717-5.166-2.073
				c-7.888-6.984-30.85-24.896-35.373-28.416l-0.807-0.628V403.32z M469.955,325.091c-2.531,0-4.591,2.06-4.591,4.591v35.426
				l0.191,0.15c12.696,9.992,21.605,17.219,25.762,20.9c0.843,0.747,1.885,1.142,3.012,1.142c1.371,0,2.667-0.591,3.291-1.14
				c5.258-4.656,16.948-13.947,25.828-20.921l0.191-0.15v-23.634h-8.684c-4.236,0-7.682-3.446-7.682-7.682v-8.683H469.955z
				 M461.465,350.5c-2.862,2.241-5.291,4.134-6.891,5.378l-0.507,0.395l0.507,0.395c1.598,1.243,4.029,3.138,6.891,5.379
				l0.808,0.633v-12.812L461.465,350.5z M526.729,362.666l0.808-0.631c2.86-2.236,5.291-4.128,6.89-5.368l0.508-0.395l-0.507-0.395
				c-1.6-1.246-4.03-3.139-6.89-5.379l-0.809-0.633V362.666z M510.364,333.773c0,2.531,2.06,4.591,4.591,4.591h6.498l-11.089-11.088
				V333.773z"/>
			<path fill="#FFFFFF" d="M494.501,374.183c-9.934,0-15.864-5.93-15.864-15.863c0-11.12,6.93-24.046,15.864-24.046
				c8.934,0,15.863,12.926,15.863,24.046C510.364,368.252,504.434,374.183,494.501,374.183z M482.078,362.007
				c1.623,7.904,8.48,9.084,12.423,9.084c3.944,0,10.804-1.181,12.425-9.091l0.181-0.88l-0.843,0.31
				c-0.605,0.223-1.443,0.478-2.566,0.478c-2.89,0-4.41-1.35-5.631-2.435c-1.049-0.929-1.87-1.656-3.581-1.656
				c-1.713,0-2.534,0.73-3.572,1.655c-1.22,1.085-2.738,2.437-5.624,2.437c-0.871,0-1.657-0.146-2.549-0.473l-0.843-0.309
				L482.078,362.007z M494.501,337.364c-6.512,0-12.186,10.539-12.721,19.605l-0.015,0.244l0.184,0.161
				c0.964,0.846,1.769,1.445,3.339,1.445c1.713,0,2.533-0.73,3.572-1.655c1.22-1.086,2.738-2.437,5.624-2.437
				s4.406,1.347,5.627,2.43c1.054,0.935,1.874,1.661,3.585,1.661c1.577,0,2.385-0.601,3.354-1.449l0.185-0.162l-0.015-0.245
				C506.685,347.9,501.011,337.364,494.501,337.364z"/>
		</g>
	</g>
</g>
</svg>
