<?xml version="1.0" encoding="utf-8"?>
<!-- Generator: Adobe Illustrator 15.0.2, SVG Export Plug-In . SVG Version: 6.00 Build 0)  -->
<!DOCTYPE svg PUBLIC "-//W3C//DTD SVG 1.1//EN" "http://www.w3.org/Graphics/SVG/1.1/DTD/svg11.dtd">
<svg version="1.1" id="Layer_1" xmlns="http://www.w3.org/2000/svg" xmlns:xlink="http://www.w3.org/1999/xlink" x="0px" y="0px"
	 width="983px" height="268px" viewBox="-684.5 -177.833 983 268" enable-background="new -684.5 -177.833 983 268"
	 xml:space="preserve">
<g>
	<path fill="#FFFFFF" d="M-569.889-28.909c-0.181,1.077-0.537,1.254-1.787,1.613c-0.715,0.712-1.433,1.612-2.322,1.783l-1.433,0.718
		c-0.897,1.254-2.321,1.966-3.399,2.684l-1.25,0.177l-1.254,0.535c-0.536,1.253-1.613,1.783-2.148,1.43
		c0,0.535-0.18,0.894-0.716,0.894c-0.179,0-0.362,0.183-0.535,0.183h0.18c-0.895,0.536-1.251,0.719-2.148,0.719
		c0.535,0.711,0.176,1.07-0.36,1.253l-1.613,0.895c-0.182,0-0.718,0.176-0.897,0.176h-0.179c-0.177,0.366-1.071,0.901-1.433,1.253
		c-0.356,0.359-0.898,0.536-1.251,0.536h-0.17c0,0.183-0.179,0.183-0.36,0.183l-1.432,0.888c-0.536,0.366-1.25,0.536-1.613,0.536
		c-0.898-0.183-1.25,0.183-1.433,0.718c-0.716,0.895-1.078,1.43-1.787,1.43c-0.179,0-0.362,0.183-0.535,0.365l-0.536,0.53
		c-0.535,0.718-1.786,0.901-1.969,1.083h-1.25c-0.179,0-0.715-0.183-0.715,0c0,1.07,0.536,1.43-0.356,1.965
		c-0.359,0.177-1.25,0.529-1.077,0.36l-0.895,0.359l0.179,0.176c0,0-0.362,0-0.535-0.176l-0.897,0.711
		c-0.715,0.36-1.613,0.901-2.857,1.072l-0.179,0.182c-1.97,2.501-5.725,2.86-8.587,3.402c-0.898,0.177-2.505,0.353-3.046,0.895
		l-1.433,0.529c-0.714,0-1.077,0.19-1.613,0.366c-1.25,0.535-2.501,0.718-3.754,0.535c-1.25,1.078-2.322,1.253-4.114,1.078
		c-0.362,0-1.077-0.177-1.434-0.177c-0.889,0.177-1.969,0-2.857-0.189c-0.362-0.176-0.535,0-0.898,0c-1.43,0-3.036-0.176-4.47-0.529
		c-3.225-0.183-6.265-1.613-9.302-3.037l-1.433-0.541l0.173,0.183c-1.786-0.895-3.393-1.965-4.649-3.579l-0.536-0.176
		c-0.718-0.712-1.253-1.253-1.433-1.783c-0.535-1.437-1.613-2.508-2.863-3.226c-1.969-1.613-3.582-3.213-3.935-5.897
		c0,0-0.183,0-0.718-0.365l-0.536-1.789h0.208c-0.355-0.353-0.535-1.071-0.535-1.612l-1.434-6.464l-0.179-1.248
		c0-0.365,0-0.895,0.353-1.247v-0.895c-0.353-0.895,0-1.612,0.362-2.148l0.355-0.359c0-0.712,0.359-1.424,0.359-2.142l0.363-1.966
		c0-1.613,0.173-2.684,0.715-3.944l0.535-1.424l0.362-1.972l0.715-1.077c0.183-1.248,0.897-1.613,1.434-1.966
		c0.179,0,0.179,0,0.536-0.177c-0.356,0-0.716-0.176-0.898-0.894l1.254-1.254c0.536-0.536,0.359-0.9,0-1.972
		c0.895-0.529,0.895-0.895,0.895-1.248c0-0.354,0-1.248,0.536-1.787c0.718-0.718,1.077-1.612,1.969-2.503
		c0-1.25,0.356-1.968,1.25-3.037l0.535-1.254l1.254-1.25c0.359-0.536,0.714-1.077,0.714-1.969c0-0.536,0.181-0.714,0.537-1.078
		c1.433-1.423,2.321-2.863,3.392-4.826c1.434-1.43,2.331-3.216,3.761-4.828l1.433-1.79c0.362-0.358,1.966-2.148,2.148-2.863
		c0.715-1.25,1.786-3.039,3.042-3.393c0.536-0.182,0.898-0.717,1.254-1.254c0.359-1.43,1.612-2.683,2.501-3.934l0.718-0.536
		l1.965-1.786l1.254-0.897l1.25-1.25c0.716-0.718,1.613-0.535,1.613-1.253l0.898-1.251c0.715-0.173,1.429-0.356,1.612-1.071
		c0-0.362,0.181-1.077,0.715-1.25c1.251-0.718,2.505-1.79,3.22-2.325c1.251-1.078,2.148-1.966,3.583-2.857
		c0.535-0.179,1.25-0.536,1.786-0.179l0.897-0.898c0.18-0.535,1.43-1.25,2.148-1.077c0.353-0.895,1.43-1.966,2.501-1.966
		l0.535-0.183c1.786-2.148,4.296-3.761,7.872-5.541l3.043-1.25c1.612-1.071,3.576-1.612,5.188-2.321
		c3.399-1.08,7.872-2.148,11.624-2.505c1.433-0.356,3.402-0.356,4.832,0.715c0.362,0.363,0,0,0.362,0
		c0.898-0.894,2.505-0.179,3.755,0.363c0.18,0,0.18,0.179,0.363,0.179c1.25,0,2.5,1.254,3.218,1.968l0.716,0.716l-0.363-0.173
		c0.537,0.715,1.077,1.25,1.434,1.071c0.536,0,1.433,0.536,1.612,0.897v-0.183c0.356,0.897,0.715,1.254,1.071,1.613
		c0.363,0.535,1.25,0.897,1.613,1.789c0,0.359,0.179,0.533,0.179,0.896c0.718,1.077,0.897,2.147,1.253,3.218
		c0.18,0.362,0.359,0.898,0.18,1.251c-0.18,0.897-0.18,0.897,0,1.071c0.897,0.897,0.897,1.788,0.179,2.324
		c-0.179,0.359-0.359,0.536-0.179,0.715l0.179,1.786c-0.535,0.718-0.895,1.253-0.535,1.968c0.356,2.684-0.36,4.114-1.251,5.721
		l-0.179,1.078c0.179,1.071-0.177,1.968-0.892,2.86c-0.363,0.358-0.536,1.078-0.715,1.965c-0.536,0.535-0.892,1.433-0.892,2.148
		c-0.178,0.535-0.178,1.612-0.535,1.969c-0.714,1.071-1.071,1.968-1.251,3.219v0.897c-0.183,0.715-0.362,1.43-0.718,1.965
		c-0.535,0.719-1.787,0.719-2.328,0.183c-1.786-1.433-3.393-2.86-4.832-4.473c-0.173-0.359-0.173-1.431,0-1.966l0.719-1.613
		c0.179-0.718,0.532-1.613,0.532-2.325l0.355-1.431c0.18-0.175,0.536-0.535,0.536-0.89l1.071-3.762
		c1.078-0.897,1.251-1.786,1.613-3.037l1.077-3.04c0.363-0.361,0.537-0.897,0.537-1.968l0.179-2.856l0.718-3.047v-0.536
		c-0.897-1.077-0.718-1.43-0.718-2.321c0,0,0.362-0.18,0.535-0.18c-0.18-0.536-1.25-1.251-1.612-1.434l-2.864-1.43
		c-0.536,0-1.078-0.176-1.613-0.176c-1.077,0-1.613,0-2.148-0.18c-0.362,0.18-0.897,0.356-0.897,0.356
		c-0.895-1.434-0.895-1.07-0.895-0.891c-0.536,0.355-0.719,0.535-0.897,0.535c-1.078,0.356-2.148,0.356-3.399,0.18
		c-1.612-0.18-2.856-0.359-4.117,0.355c-0.352,0.898-0.715,0.898-0.895,0.898c-0.183,0-0.717,0.18-0.717,0.359
		c-0.18,0.718-1.43,0.718-2.148,0.718c-1.078,0-2.501,0.715-3.399,1.613c-1.25,1.077-2.685,1.612-4.47,1.786
		c-1.253,0.173-3.04,1.25-4.29,1.968c-0.719,0.532-1.79,1.613-2.685,1.251l-2.503,2.148c0,0.18-1.078,0.535-1.25,0.535l-1.613,1.078
		l-1.433,0.715v-0.179l-1.612,1.43c-0.715,1.071-3.755,3.937-3.755,3.937c0.183-0.183-3.22,2.501-4.296,3.755l-1.078,1.078
		l-1.43,1.077l0.18-0.183c-0.715,0.356-0.898,1.434-1.613,1.79c-0.363,0.535-0.898,0.715-1.434,1.43
		c-0.894,0.363-1.43,0.898-1.786,1.251l-1.434,1.612l-1.612,1.254l-0.536,1.613c0,0.715-0.715,1.25-1.25,1.785
		c0,0-0.363,0.356-0.898,0.716c-0.179,0.717-0.894,1.612-1.786,2.148l-1.969,2.325l-2.322,2.683c0-0.183-1.25,2.502-1.25,3.037
		l0.173-0.173l-1.612,2.684c-1.25,0.535-1.613,1.968-2.504,3.046c-0.179,0.715-0.535,1.25-1.25,2.148
		c-0.536,0.536-0.715,1.25-1.251,2.322c-0.362,0.363-0.362,0.718-0.898,1.248c0,0-1.612,3.042-2.148,4.838l-1.612,3.932
		c-1.43,2.154-2.321,4.473-2.856,6.085v0.536c-0.18,1.612-0.898,2.683-1.614,3.937l0.18-0.183v1.43c0,0.176-0.18,0.353-0.18,0.535
		c0.18,0.718,0.18,1.078-0.179,1.613c-0.719,0.718-0.536,1.613-0.536,2.684c0,0.358-0.184,0.536,0,0.718v1.071
		c0,0.183-0.184,0.711-0.184,0.895c0,0.718,0,1.43,0.184,2.5v0.895c0,0.901,0.353,2.155,0.536,3.402
		c0.179,0.182,0.535,0.541,0.535,1.083c0.359,2.143,1.786,3.931,3.043,5.368l2.503,2.494c0.716,0,1.433,0.719,2.322,1.084
		c0.356,0.176,0,0.353,2.857,1.07l0.362,1.248l3.04,0.895l3.399,0.359c2.504,0.711,5.005,1.077,7.336,0.711
		c0.536,0,1.078,0.177,1.966,0.359c0.362,0,1.078,0,1.613-0.359l2.684-0.895c0.183,0,0.897-0.176,1.077-0.176
		c2.684-0.718,5.541-1.613,8.051-2.507c0.715-0.177,1.077-0.177,1.433,0.183c0-1.253,0.895-1.253,2.329-1.43l0.355-0.542
		c0.535-0.529,1.25-1.247,2.321-0.176c0-0.177,0.363-0.177,0.715-0.353l3.402-1.789c0.895-0.366,1.25-1.436,1.786-1.436
		c0.18,0,0.715-0.177,0.898-0.177c0.353,0,1.077,0,1.612-0.365h1.078c0.535-0.895,0.353,0.365,1.25,0.188
		c0-0.188,0.898-1.083,0.898-1.083c0.715-0.529,1.613-2.319,2.857-2.501c0.898-0.17,1.078,0.359,1.968-0.535
		c0.18-0.177,0.715-0.177,0.895-0.177c0.362-0.176,1.251-0.541,1.786-1.26c0.536-0.353,0.719-0.528,1.253-0.528
		c0.18,0,0.18,0.175,0.536,0c0.173,0,0.173,0,0.173-0.183c0.18-0.536,0.536-1.254,1.077-1.431l4.297-1.789l0.536-0.176l2.503-1.79
		l2.684-1.437c0.353,0,0.895,0.354,1.43-1.071c0.536,0.177,1.078,0.177,1.078-0.189c0-1.247,0.535-1.423,1.789-1.064v-0.902h0.889
		l0.361-0.175c0-0.366,0.363-0.895,0.898-0.895v0.36l2.148-1.078l1.078,0.358l-1.078,0.72c0.18,0,0.715,0,1.078-0.183l0.536-0.895
		h-0.177l0.177-0.535v-0.902c0,0-0.177,0,1.965-1.783l1.613-1.253c0,0,0.361-0.176,0.535-0.176c0.183-0.529,0.898-0.895,1.786-1.07
		c0.718-0.902,1.613-1.437,2.325-1.79c0-0.183,0-0.353,0.535-0.894c2.149-1.072,4.291-2.684,5.368-3.938
		c0.179,0,2.5-0.718,3.037-1.078l0.183-0.176c-0.183-0.718,0.179-1.431,1.25-2.142c0,0,1.433-1.26,2.321-1.612h1.071l0.718-1.072
		l0.895-0.365l0.891-0.176h0.363l0.535,0.354c0,0.358,0,0.358-0.718,1.612l-1.25,0.541c0.18,0.53,0,1.248-0.18,1.783h0.36v1.431
		l-1.251,1.084l-2.148,1.43c-0.535-0.359-0.897-0.718-0.897-1.254c-0.359,0-0.715,0-1.078-0.175l-2.5,1.965l-1.79,1.612l-1.43,1.248
		c0.536-0.36,1.251-0.895,1.251-0.895c0.173,0.718,0.355,0.718,0.535,0.535l0.715-0.711c0.183-0.183,0-0.719,0.898-0.901
		c0.179-0.712,0.535-0.895,1.076-1.07c0.893,0,1.251-0.183,2.323-0.895l0.718,0.895c-1.077,1.612-2.148,1.789-3.219,1.972
		c-0.182,1.429-0.897,1.965-1.969,2.501l-0.715,0.358c-0.717,1.437-2.503,2.325-4.296,3.579l-1.253,1.07l-0.536,0.183
		c-0.179,0.183-1.078,1.078-1.429,1.078l-0.183,0.175C-568.63-28.909-569.171-28.374-569.889-28.909z M-643.217-79.884
		c0,0.18,0.179,0.18,0.179,0.715c0,0.18-0.179,0.715-0.179,0.898l0.895-0.176l-0.18-0.535l0.18-0.715L-643.217-79.884z
		 M-572.573-31.409l0.536-0.542h-0.359C-572.391-31.775-572.391-31.592-572.573-31.409z M-566.308-34.446h0.173
		c0,0-0.353-0.542,0.183-1.436l0.715-0.176c0.362-0.718,0.715,0,1.251,0v-0.359l-0.536-0.359c-0.179,0-0.359,0.177-0.535,0.177
		l-1.43,0.365c-0.183,0.718-0.362,1.071-0.718,1.071c0,0.176,0,0.359-0.18,0.542c0.18,0,0.18,0,0.362-0.184
		C-566.67-34.446-566.308-34.446-566.308-34.446z M-552.353-47.153l0.715,0.536c0-0.536,0.183-0.894,0.535-1.248
		C-552.18-47.865-552.533-47.688-552.353-47.153z M-550.93-46.618c0,0,0-0.176,0.183-0.536l-0.717,0.536H-550.93z M-546.277-46.793
		l-1.251,1.083c-0.362,0-1.612-0.189-1.433-1.436l1.433-0.896c0.353-0.176,0.536-0.176,0.895-0.176L-546.277-46.793z"/>
	<path fill="#FFFFFF" d="M-557.554-22.47c-0.18-0.183-0.18-0.358-0.18-0.718c0-0.535-0.182-1.078-0.535-1.253
		c-1.969-2.142-1.434-4.107-0.715-6.438c0.715-1.612,1.612-2.854,2.681-4.467c0.362-0.901,0.535-1.783,1.433-2.148
		c0.173,0,0.173,0,0.173-0.177c0.536-3.042,2.867-4.296,4.117-6.438c1.433-0.529,1.25-1.965,0.535-3.043
		c-0.362-0.9-0.179-1.972,0-2.854c0-0.718,0.537-1.437,0.173-2.154c0.536-0.895,1.253-2.146,2.332-3.037
		c0.715-0.715,1.965-0.715,2.856-0.353c2.504,0.714,5.005,1.251,6.98,3.212l3.037,3.402c0.536,0.895,1.078,1.783,1.253,3.037
		c0.181,0.542,0.536,0.901,1.251,0.901c1.071,0.17,2.684,2.684,3.399,2.684c1.789-0.359,3.039-0.712,4.652-0.712
		c4.117-0.359,1.434-1.26,4.297-0.901c0.356,0,1.07-0.169,1.433-0.358c0.895-0.353,1.786-0.712,2.684-0.712
		c1.966-2.867,3.935-5.184,6.617-7.692c2.148-1.608,4.65-3.751,6.792-5.184c0.361-0.536,1.433,0,1.969,0
		c2.321,0.535,4.116,1.968,5.902,1.968c1.613-0.179,2.148,0.715,3.219,1.251c0.356,0,0.537,0.717,0.537,0.717
		c0.535,1.966-0.363,3.39-2.149,3.756h-1.078c-0.361,0.358-0.535,1.247-0.535,1.247c1.432,1.966,3.219,4.473,5.72,3.938
		c0.718,0,0.898,0.901,0.898,0.901c1.613,1.612,3.755,1.248,5.368,0.882c7.516,0,10.734,1.083,14.663-2.495
		c2.683-1.613,5.902-2.155,8.942-3.944h0.18c0.897,0,1.612-0.353,1.612-0.353c0.898,1.437-0.362,1.613-0.715,2.325
		c-0.183,0.183-1.077,0.712-1.077,0.712c-1.077,0.189-1.433,1.084-2.148,1.437c-0.897,1.078-2.504,1.966-3.761,2.86
		c-0.356,0-1.433,0.359-1.613,0.359h-0.898c-0.536,2.501-2.504,2.149-3.934,2.866c1.078,2.501-11.806,3.037-12.697,2.86
		c-0.535,0-0.714,0.176-1.43-0.359c-2.325-0.536-6.616-0.536-9.299-1.972c-1.25-0.894-3.399,2.155-3.761,4.656
		c-0.354,2.149-0.533,2.854-2.146,4.467c-1.97,1.436-2.325,2.684-3.401,5.015c-0.181,0.712-1.072,1.783-2.502,2.495
		c-0.717,0.901-3.219,1.437-3.575,2.155c-1.786,2.142-4.47,2.5-5.903,2.142c0-0.895-0.536-0.895-1.251-0.895
		c-1.788,0.353-3.219-0.177-3.219-2.5c-1.786-0.901-1.786-2.684-1.969-3.396c-0.714-2.507-0.535-4.296,0.183-6.804
		c0.173-3.036,1.786-5.903,3.393-8.586v-0.183h-0.536c0,0-8.76,5.368-11.271,0.895c-0.898,0.358-1.613,1.083-2.863,1.083
		c-0.356,0-0.535,0.718-0.535,1.071c-0.183,0.894-0.719,1.789-1.078,2.5c-0.535,0.536-1.613,0.901-0.535,1.783
		c-0.363,0.542-0.537,1.613-1.254,2.331c-1.25,1.424-2.148,3.037-3.219,4.296l-1.787,2.32c-0.535,0.717-1.077,1.247-1.613,1.612
		l-0.714,0.535c-1.071,0.36-2.324,1.253-3.219,1.966c-1.254,0.718-1.969,1.254-3.04,0.718
		C-553.438-18.892-555.226-20.504-557.554-22.47z M-551.651-24.258l2.321-1.431c1.433-0.894,2.504-1.965,3.755-2.86
		c0.183,0,0.362,0,0.535-0.177c0.536-1.436,1.613-2.684,2.685-3.938c1.077-1.783,2.321-3.226,3.046-5.008
		c0.355-0.718,0.355-1.07-0.363-1.07c-1.612,0.353-2.683-0.366-3.935-0.901c-0.18-0.183-0.535-0.359-0.535-0.536
		c-1.433-1.077-1.433-0.894-2.503,0.536c-0.36,0.358-0.895,0.712-1.078,1.43c0.183,0.183,0.183,0.365,0,0.718l-0.173,0.365
		c-1.078,0-1.25,0.712-1.433,1.613c0,0.176-0.179,0.711-0.535,0.711c-0.889,0-0.715,1.078-1.071,1.613
		c-0.536,1.077-0.895,2.324-1.613,3.396c-0.535,1.26-0.716,2.684-0.895,3.401C-553.972-24.611-552.722-23.9-551.651-24.258z
		 M-537.34-43.398c0.179,0,0.359-0.183,0.359-0.359v-0.895c-0.18-2.684-1.251-5.014-4.115-6.438c-0.182,0-0.535-0.189-0.717-0.365
		c-0.536-0.537-0.895-0.177-1.613,0c-1.431,0.535-1.25,2.33-1.966,3.048c0,0,0,0.354,0.18,0.529c0.18,0.366,0.355,0.542,0.536,0.542
		c1.612,0.177,2.322,1.248,2.683,2.326c0,0.358,0.18,0.9,0.18,1.253c0.535,0.529,1.07,0.719,1.789,0.529l1.786-0.353
		C-538.06-43.398-537.523-43.398-537.34-43.398z M-516.053-26.583c0.715-0.353,2.683,1.43,3.761,1.07
		c0.535,0,3.04-3.036,3.393-3.396c2.504-3.755,2.683-4.113,5.367-6.438c2.321-2.325,3.04-8.763,4.832-11.447
		c0-0.895,0.179-1.248,0.179-1.613c-0.359-0.895-0.894-1.43-1.25-1.43c-0.536,0-1.786,0.535-2.148,0.535
		c-1.078,1.613-6.262,3.036-6.618,4.297c-0.715,1.247-3.398,3.389-3.582,4.473c-1.251,1.612-2.322,3.212-2.857,4.826
		c-1.25,1.972-0.536,5.014-1.969,7.522C-516.951-27.654-516.053-26.936-516.053-26.583z"/>
	<path fill="#FFFFFF" d="M-455.606-63.608v-0.355h0.18c-0.18-0.179-0.362-0.362-0.362-0.715l1.253-1.969v0.179
		c0-0.179,0.354-0.358,0.354-0.535v-0.895l0.897-1.968v-0.362l0.362-1.07l1.071-3.216l0.18-0.719l0.363-1.43
		c0.352-2.684,0.535-3.04,2.5-5.188l0.718-0.898c-0.182-1.077,0.18-1.077,1.077-1.612c0-0.36,0.353-0.716,0.536-0.895l0.895-1.254
		c-0.359-0.353-0.18-1.071,0.355-2.147c0.362-0.18,0.536-1.251,0.715-1.787l1.077-1.433c0-0.535,0.182-0.714,0-0.894
		c0-0.718,0-0.898,0.182-1.254c0.895-1.786,2.322-2.684,1.966-5.368c0.719-0.353,0.719-0.715,0.719-0.895l0.351-1.253l1.787-3.043
		l1.433-2.504l-0.179,0.173l0.534-0.895c0-0.898,0.181-1.434,0.354-2.148l2.866-5.368l1.786-3.401l3.575-7.333
		c0-0.362,0.536-0.715,1.077-1.613l0.895-1.251c0.356-0.717,1.077-1.253,1.433-1.253v-1.613c0.715,0,0.897,0,0.897-0.179
		c0-0.535,0.18-1.613,0.716-1.786c-0.536,0-0.536-0.536,0.179-1.789l-0.179,0.183c0.535-1.078,0.714-2.325,2.321-2.504
		c0.183-1.612,1.077-2.684,2.147-3.754c0-1.077,0.356-1.613,1.254-2.148l1.077-1.613h-0.375l1.966-2.683
		c-0.179,0,1.078-2.149,1.79-2.684l0.353-0.535c0,0,0.182-0.716,0-0.895c0.182-0.363,0.182-1.612,0.182-1.612
		c1.078,0.535,1.251,0.352,1.431,0l0.717-1.078c1.787-2.098,3.043-3.169,3.935-4.246h0.173c0.183-0.18,1.078-0.18,1.253-0.18
		c0.354-0.176,0.716-0.535,1.251-0.535c2.148,0,3.581,1.43,5.185,3.754c0,0.359,2.684,0,1.789,2.863c0,0.536,0,0.716,0.179,1.078
		c0.356,0.535,0.898,1.433,0.898,1.786c0,2.328-0.535,3.581-0.898,5.367c-0.897,3.04-2.504,8.052-4.469,11.271l-1.25,3.582
		c-0.363,0.179-0.719,0.714-0.719,1.25c-0.353,1.786-0.353,2.863-1.612,3.219c0,0.18-0.354,0.715-0.354,0.715
		c-1.253,2.504-2.148,4.473-3.937,6.622c-0.537,0.715-1.078,1.077-1.078,1.965c-0.179,0.536-0.358,1.077-1.43,2.857
		c-0.183,0-0.183,0-0.183,0.183c-0.18,1.077-0.715,1.786-1.43,2.321c-0.362,0.363-1.077,0.898-1.613,1.786l-0.517,1.072
		c-0.355,0.535-0.535,1.433-1.613,2.321c-0.355,0-0.535,0.718-0.897,1.613l-0.888,1.433l-5.188,5.903
		c-0.18,0-0.18,0.362-0.363,2.322c-0.715,0.182-1.612,0.718-1.786,1.613c-0.536,0.183-0.536,0.183-0.536,0.535l-3.04,3.755
		l-0.895,1.612c-0.183,0.184-0.362,0.184-0.362,0.537c0,1.433-0.356,1.789-1.251,2.147c-0.717,0-0.897,0.183-1.077,0.183
		l-0.355,0.353h-0.18c0.535,0.72,0,1.434-0.363,1.97c-1.071,1.613-2.856,4.117-5.005,6.076l-1.07,0.718l-0.362,0.536
		c-0.535,1.786-2.503,4.287-3.398,5.364l0.179-0.536l-1.434,1.078l-1.25,1.434c-0.715,1.251-1.786,2.856-1.786,4.29
		c-0.362,0.715-0.898,1.078-1.078,1.614c-0.362,0.355-0.717,1.433-1.077,2.503c-0.183,0.359,0,0.535,0,0.895
		c-1.433-0.353-0.718,1.253-1.789,1.968c-0.354,0.18-0.715,0.362-0.532,0.715c0.178,1.434-0.898,2.325-1.435,3.585l-0.361,1.071
		l-0.161,0.529l-0.18,0.895c-0.718,0.894-0.718,1.966-1.433,3.037c0.18,0.535-0.535,0.535-0.715,1.077v0.36c0.18,0,0,0.176,0,0.176
		h-0.176l-0.535,1.613l-0.353,0.365c-0.183,0.712,0.173,1.424-0.536,1.783c-0.175,0.183-0.717,0.712-0.175,0.712
		c0.175,0.189,0.535,0,0.718-0.17c1.25-1.078,2.321-1.613,3.036-2.684c0.183-0.359,0.183-0.536,0.536-0.901l0.183-0.177
		c0.715,1.613,0.715,0.177,1.076-0.176c0.18,0,0.537-0.359,0.895-0.177c1.254-0.895,1.254-0.895,1.969-2.154
		c0-0.712,0.179-1.248,0.715-1.248c1.788-1.077,3.937-2.86,5.903-5.001c2.324-2.507,5.008-4.3,7.872-6.978
		c0.535-0.715,1.966-0.715,2.501-2.148c0-0.356,1.078,0.363,1.078,0c0.717-0.898,1.788-0.898,2.504-1.787
		c0.897-0.356,1.433-1.433,3.219-0.897c0.362,0,0.715-0.535,1.077-1.071c0.897-0.535,1.613-0.359,2.148-0.18
		c0.897,0.716,1.613,0.898,2.505,1.434h-0.183c1.433,0.895,3.219,2.864,2.683,7.333l0.183,0.18c-0.183,0.536,0.536,1.078,0.353,1.79
		c-0.353,0.179-0.715,0.714-0.715,1.077c0.362,2.501-0.716,3.931-1.613,5.367c-0.173,1.43-0.535,2.502-1.612,1.79
		c-0.535,0.353-0.535,0.894-0.535,1.247v0.895c-1.433,0.541-2.504,1.966-3.041,2.867c-0.358,1.782-2.327,2.325-3.398,3.395
		l-4.117,3.226c-0.179,0.177-0.535,0.354-0.535,0.354c-0.353,1.247-1.43,1.077-1.966,1.247c-0.535,0-0.535,0.359-1.077,0.542
		c-0.718,0.718-1.25,2.142-2.684,1.612c-0.356,0-0.536,0.176-0.715,0.176c-0.356,1.613-1.968,2.155-3.22,2.508
		c-0.176,0.176-0.355,0.176-0.355,0.176l0.355,0.353h0.18l0.535,0.542h0.18l3.04,4.649c0.715-0.535,1.434-0.895,1.434-0.535
		c0.894,0.711,2.145,0.9,3.398,0.535c0.173,0.176,0.354,0,0.536,0.176c1.25,0,2.321,0.359,3.579,0c1.789,0,3.219-0.711,5.543-1.248
		l0.715,0.176c0.536-0.529,1.968-0.353,2.505-0.712l0.714-0.182c1.078-0.53,1.613-1.072,2.857-1.79l3.938-2.684
		c0.895-0.712,2.501-1.425,2.322-1.071c0.894-0.529,0.535-0.529,5.005-3.036c1.071-0.719,2.856,0.176,3.039-2.508
		c0.895-0.353,2.148-0.718,2.684-1.248c1.787-1.437,2.149-2.873,3.755-3.584c0.535-0.359,0.715-0.536,0.895-0.712
		c1.613-1.972,4.833-4.297,7.154-6.98c1.433-0.712,1.612,0.542,0.362,3.043c-0.18,0.895-0.362,1.783-1.613,2.148
		c-1.25,2.331-3.219,4.473-4.113,5.544c0,0.177,0.179,0.719,0,0.719c-1.79,0.895-2.325,1.789-3.04,2.148
		c-2.504,1.783-4.832,4.113-7.153,5.726c-0.898,0.353-1.969,0.353-2.149,1.248c0.18,0.176-0.898,0.535-1.612,0.895
		c-1.078,0-1.434,1.071-2.505,1.613c-0.898,0.895-2.148,1.789-3.398,2.154c-1.078,0.354-3.4,1.783-4.297,1.613h-0.356
		c-1.25,1.071-3.398,1.966-5.005,2.143c-2.863,1.612-14.49,2.866-16.995-0.177h-0.535l-6.256-5.72c-0.536,0-1.251,0.176-1.969,0.176
		h-0.536c-0.895,0.365-1.785,0.176-2.501,0c-1.789-0.176-3.755-0.895-5.723-2.86c-0.897-0.718-2.322-3.931-2.684-5.367
		c-6.256,11.989-6.438,12.348-6.792,12.701c0.353,0.542-0.362,1.083-0.536,2.154c0,0.176,0.359,1.071,0.715,1.613
		c0.715,0.718-0.355,0.358-1.07,0.895c-0.18,0,1.613,4.296-1.97,2.683c-0.535,0-1.077,0.719-1.429,0l-1.254-1.612
		c-0.173-0.365-0.173-0.535-0.173-0.718c-0.362,0.183-0.535-0.177-0.535-0.53v-0.416l0.179-0.183v-0.183
		c-0.179-0.353-0.714-0.353-0.714-0.353c-0.18-0.359,0.179-0.895,0.179-1.43c0.535,0,0.898-0.536,0.356-1.613
		c0,0,0.535-0.176,0.179-0.359l0.898-1.783c0.897-1.613-1.077,1.078-0.179-0.9c0-0.353,0.894-0.53,0.894-1.071
		c-0.179-2.155,1.79-3.225,1.79-5.544c1.786-1.613,1.966-5.002,3.755-7.333c0.536-1.07,0.536-1.965,1.431-2.859
		c0.717-1.437,0.176-2.86,1.433-3.579c0.536-2.325,2.321-3.937,2.148-5.909c0-1.424,1.078-2.684,1.787-3.755
		c0.361-1.426,0.718-2.681,1.253-3.576l0.173-0.356v-0.535c0-0.714,0-1.25,0.535-1.786l0.536-0.536l0.898-1.434
		c-0.363-1.25,0.178-1.785,0.894-1.965v-0.176C-455.606-63.785-455.606-63.608-455.606-63.608z M-453.64-28.196
		c0.897,0,1.969-0.353,2.683-0.712c-0.714-0.535-1.612-0.535-1.25-1.077c0.356-1.247-1.786-0.176-2.147-1.613l-0.715-0.894
		l-0.718,0.717c0.183,0.529,0.183,0.712-0.353,1.248c-0.183,0.535-0.183,1.078,0.535,1.43c0.18,0.718,0.895,0.901,1.43,1.078
		C-453.994-28.374-453.64-28.196-453.64-28.196z M-455.789-31.951v-0.895C-455.968-32.492-455.968-32.304-455.789-31.951z
		 M-448.09-32.492c1.613,0.188,2.148-1.425,3.572-2.32c0.898-0.535,1.786-1.436,3.226-1.612c0.355-0.353,0.535,0,0.535-0.353
		c0.898-1.436,1.786-1.613,2.321-2.508c1.613-0.718,3.04-1.247,4.118-2.142c0.362-0.542,0.897-0.359,1.078-0.542
		c0.355-0.177,0.897-0.53,0.897-0.53c-0.536-1.612,0.353-2.154,1.43-2.154c1.434-2.318,3.575-3.037,4.473-5.367l0.715-0.529
		c0-0.359,0.363-0.901,0.363-1.261c2.683-2.498,2.683-5.536,1.25-9.834l-0.179,0.183v0.181l-0.362,0.173h-0.18v0.182
		c-1.613,0.359-3.04,0-4.29,1.251c-0.184,0.536-0.719,0.536-0.897,0.536c-0.716-0.362-1.251,0.536-1.614,0.536
		c-0.535,1.613-2.684,1.43-3.219,2.863h-0.179c-0.897,0-1.613,0.356-2.148,1.613c0.18,0.535,0,0.895-0.356,1.071l-5.902,5.544
		c-1.613,1.437-3.037,3.042-5.186,4.296c-1.07,1.43-1.968,3.213-3.755,4.296c0,0.36-2.325,1.43-1.789,1.966
		c0.535,0.895,1.968,2.318,2.866,3.036c1.071,0.542,1.613,1.083,1.071,1.613c0.359,0.718,1.078,0.895,0.895,0.718
		C-448.808-31.592-448.632-32.127-448.09-32.492z M-412.146-122.276c0.535-0.353,1.433-1.077,1.433-1.613v-3.934
		c0,0,0.18,0,0.535-0.179c-0.175,0,0-0.356,0-0.536c0-0.718,0-0.718,0.36-1.254c0,0,1.077-1.429,1.968-3.036l2.684-6.085
		c1.251-0.173,1.078-0.715,1.078-1.786c0.361-3.219,1.433-5.368,2.863-7.336c-0.18-2.149-0.18-3.22,0-4.297h0.176l0.18-0.359
		l-0.356-0.177c-0.18-0.536-0.18-0.536-0.715-0.358l-3.04,2.321l-1.612,1.787l-3.578,3.937c0,0.359-0.177,0.536-0.177,0.536
		c-0.179,0.714-0.535,1.786-1.613,2.683c-0.358,0.18-0.715,1.25-1.077,2.321c-0.715-0.173-0.715-0.173-0.715,0.536
		c0,0.173,0,0.536-0.178,0.896l-1.79,2.322c-0.532,0.356-0.715,1.251-0.895,1.786c-0.355,0.718-1.25,1.433-1.968,1.612v0.718
		c0,0.536-1.077,2.501-1.786,2.501v0.715c-0.536,2.148-1.251,3.04-1.969,3.937l-0.895,1.966l-1.254,2.684
		c-0.536,0.897-1.613,3.046-1.613,3.046c-1.25,1.612-1.965,3.219-3.037,4.649l-1.254,2.504l-0.179,0.18
		c0.179,1.79-0.891,3.04-2.148,4.29c-0.362,0.363-0.898,0.898-0.715,2.332l-0.897,1.612c0,0-0.18,0.173-0.536,0.714
		c-0.179,2.149-1.433,4.117-2.327,5.542l-3.22,5.008v0.536l-0.176,0.358h-0.179l-0.181,0.177l-0.717,1.966l-0.715,1.077l-1.25,2.148
		h-0.177l-1.25,2.866v0.895l-0.536,0.356v0.714h-0.179l-0.363,1.254l-1.071,2.322l-0.362,2.321l-0.179,0.536v0.536
		c0.179,0,0.362,0,0.897-0.536l0.715-1.433l2.505-3.755c0,0,0.358-0.894,0.895-1.25c0.361-0.715,1.076-1.25,1.788-2.684l1.786-2.148
		c0.356-1.787,1.077-2.684,3.22-1.251c0,0,0.362-1.25,0.362-1.433c0.715-2.501,1.251-4.29,4.114-4.29
		c0.535-0.179,0.176-0.895,0-1.612c-0.536-1.614,0.176-2.149,0.718-3.044c0.174-0.176,1.251-1.612,2.149-0.176
		c0,0,0,0.176,0.359,0.176l-0.359-0.176l2.684-3.935c-0.535-1.613-0.535-1.968,1.43-2.684l0.898-0.715l-0.536,0.173l0.173-2.683
		c0.183-0.536,1.077-1.786,1.613-2.328c0.898-1.969,1.789-3.575,3.762-3.937c0.534,0,0.717-0.181,0.534-1.251
		c-0.178-2.321,1.078-2.863,2.148-2.684c0.898-0.18,0.898-0.18,0.536-2.148c-0.536-0.715-0.536-2.684,1.612-1.434l0.356-1.071
		c0.18,0,0.362-0.715,0.362-0.895L-412.146-122.276z M-436.829-36.6c0.362,0,0.182-0.529,0.535-0.895l-0.535-0.177l-0.715,0.719
		c0.179,0.353,0.179,0.536,0.179,0.536S-437.008-36.417-436.829-36.6z"/>
	<path fill="#FFFFFF" d="M-398.191-37.848c0.355-0.542,0.897-0.718,1.25-1.083c0.718-1.071,2.148-5.002,2.684-5.897
		c0.356-0.542,0.535-0.895,1.25-1.071c0.536-0.718,1.077-1.789,1.969-2.507c0.535-1.07,2.504-2.142,3.398-1.247
		c1.254,0.718,0.719,1.789,1.969,3.043c0.363,0.711-1.612,4.466-2.322,5.009c-1.432,1.247-1.612,4.113-2.683,5.72
		c-1.071,0.895-0.892,1.965-1.434,2.86c-0.897,1.972-1.786,3.944-1.969,6.086c0,0.176-0.179,0.353-0.179,0.541
		c0.179,0.53,0.535,0.712,0.897,0.895c1.25-0.541,2.501,0.353,3.935,0c1.612-0.718,3.04-0.365,4.652-0.895
		c0.359-0.188,2.684-1.083,3.219-1.612c1.251-1.26,2.864-1.437,4.471-2.507c4.832-2.319,7.516-3.755,12.341-8.228
		c1.07-1.071,2.683-2.319,3.755-3.037c0.173-0.366,0.173-0.189,0.53-0.366c1.43-0.718,2.863-2.683,4.113-3.225
		c2.148-0.896,3.581-2.854,5.188-3.578c0.363-0.177,0.536-0.718,0.897-0.177c0.359,0.359,0,0.542-0.182,0.718
		c-0.715,0.718-1.431,1.437-1.431,1.789c0.533,1.966-14.846,15.562-15.744,16.096c-0.353,0.183-0.714,0.536-0.535,1.078
		c0.183,0.177-0.179,0.535-0.36,0.353c-1.968,1.437-3.219,2.508-4.651,3.402l-0.715,0.718c-0.183,0.359-1.433,0.176-2.148,0.529
		c-0.892,0.183-0.892,0.718-1.434,0.901c-1.071,0.712-1.786,1.43-3.219,1.782c-1.43,0.542-3.399,0.366-5.005,0.902
		c-0.898,0.359-1.434,0.894-2.858,0.894c-0.362,0-1.077-0.183-1.613-0.183c-1.612-0.352-3.581-1.247-5.368-1.965
		c-0.897-0.359-0.718-1.612-1.253-2.147c-0.18-0.183-0.18-0.353-0.36-0.895c-1.253-1.071-3.753-5.008-2.503-6.438
		C-399.269-33.917-398.917-35.882-398.191-37.848z M-385.677-64.326c0,0.535-0.715,0.718-0.356,1.613
		c0.356,0.718,0.356,1.434,0.356,2.324c-0.173,0.895-0.173,0.715-1.071,0.532c-1.25,0-1.969-0.532-2.684-1.786l-0.714-0.535
		c-1.254-0.895-1.434-1.965-1.79-2.863c-0.359-0.715,0-1.25,0.363-1.25c1.433,0.353,2.683-0.362,4.29-0.362l0.18,0.18
		c0.897-0.18,1.077,0.183,1.433,1.433v0.715H-385.677z"/>
	<path fill="#FFFFFF" d="M-328.263-27.654l-1.613-4.473c0-1.612,0.177-3.037-0.715-4.832c0.356-0.712,0.174-1.613-0.179-2.501
		c-0.184-0.365-0.537-0.718-0.719-1.254c-0.359-0.17-0.715-0.536-1.076-0.536l-2.685,1.078c0,0.17-0.179,0.359-0.179,0.536
		c-2.321,0.535-3.756,1.789-4.653,3.037l-1.612,1.788c-2.685,1.613-3.037,2.32-4.115,3.403l-0.897,1.07l-5.005,4.838
		c-0.176,0.53-0.536,1.072-0.897,1.431c-0.356,0.535-0.716,0.535-0.536,1.077c0.18,0.177-0.18,0.353-0.898,0.895
		c-0.895,0.718-1.612,1.612-2.5,2.154c-1.072,0.528-1.614,1.423-3.041,1.783c-1.432,0.353-2.856-0.182-4.295-1.43
		c-1.072-1.254-0.716-2.867-0.18-4.297c0.18-0.182,0.18-0.182,0.18-0.365l0.717-1.248c0.18-0.183,0.359-0.541,0.359-1.436
		c0.182-0.359,0.897-1.248,1.433-2.86c0.362-1.253,0.362-1.966,2.322-3.938c0,0,0.18,0,0.18-0.183l1.077-2.683
		c0-0.895,0.536-1.43,1.07-2.142l1.434-3.755l0.897-2.154l1.966-4.473l0.719-2.684h-0.177c0.355-0.711,0.355-1.612,1.613-2.86
		c0.177-0.173,0.535-0.535,0.355-0.891c0.18-0.715,0.536-1.25,1.078-1.612c0.356-1.078,0.715-1.078,2.505-0.36l0.353,0.535
		c1.077,0.536,1.613,1.613,1.253,2.322l-0.361,1.254c-0.537,0.53-1.251,1.789-0.897,1.612l-0.174,0.896l-0.715,1.077l0.179-0.183
		l-1.786,5.367c-0.356,0.719-0.536,1.254-0.536,1.613c0,0.365-0.536,0.718-0.719,0.894c0-0.176-0.714,1.79-0.714,2.508l-1.078,1.789
		l0.18-0.182l-0.536,2.324c-0.359,1.071-0.715,1.789-1.786,2.318v-0.177c-0.18,0.177-0.18,0.36,0,0.718
		c0,0.895-0.18,1.437-0.715,2.155l-0.183,0.177h0.183c0.173-0.177,0.715-0.895,1.071-1.078l1.25-1.613l0.535-0.535l3.04-2.86
		l0.536-0.359l0.537-0.712c0.358-0.188,0.535-0.188,0.715-0.188c0.179-0.176,0.715-0.176,0.715-0.353c0,0,0.717-1.072,1.076-1.437
		l0.536-0.535c0.536-0.712,1.077-1.078,1.612-1.253c0.183,0,0.537-0.354,0.719-0.53c0.535-0.542,1.07-1.083,1.786-1.083
		c0.363,0.183,0.363,0,0.536-0.719l2.504-1.246c-0.362,0,0.535-0.366,1.25-0.537c0.18,0,0.536-0.169,0.715,0
		c1.253,0,2.325,0,3.402,0.36c0.895,0,1.786,0.542,2.684,1.083c0.716,0.529,1.25,1.071,1.613,1.965
		c1.43,1.072,1.965,2.86,2.322,4.65c0.179,1.077,0.535,2.331,0.894,3.402c0.182,1.789,0.182,3.579,0.897,5.367
		c0.899,1.613,0.899,3.755,3.575,3.755c-0.176-2.508,7.869,1.248,0.535,3.395c-2.504,0.719-6.438-2.147-7.335-4.296L-328.263-27.654
		z"/>
	<path fill="#FFFFFF" d="M-278.723-17.285h0.179l-0.535,0.895h1.077c1.078,0,3.219-2.142,3.756-2.86l6.265-2.683l1.786-2.861
		l1.786-0.176c1.613-1.253,1.613-1.083,3.583-2.508c0.361-1.613,1.077-1.789,2.147-3.036h-0.173l4.47-1.79
		c0.897-0.895,0.897-1.248,1.078-1.613h-0.181c1.43-1.071,1.966-1.789,2.685-2.318l1.25-0.895c0.536-0.19,0.898,0,1.251,0
		c0-0.19,0.18-0.718,0.356-0.9l0.714-0.901c1.078-3.566,1.434-3.755,2.505-3.755l1.077,0.188c-0.183-1.083,0.895-2.873,1.612-3.768
		c-0.183,0.184,0.715-0.528,3.934-3.571c1.251,1.071,0.18,3.219-3.754,7.869h0.179l-0.895,0.542
		c-0.535,0.529-0.717,1.071-0.717,1.424c-1.786,2.155-3.578,4.297-5.005,4.473c0,0.717-0.359,2.325-0.537,3.402
		c-2.5,1.613-6.617,5.721-7.688,6.256c-0.18,0-0.18-0.183-0.362-0.183h-1.07c-0.181,1.971-0.715,1.971-1.078,1.971
		c-1.965,1.43-3.934,3.579-4.832,4.65c-0.714-0.169-0.714,0.183-1.078,0.535c-0.714,0.895-1.076,1.437-1.25,1.437l-0.715,0.353
		c-1.253,0.895-2.503,1.789-6.611,4.113c0.173-0.169-1.433,0.901-1.97,1.078l-2.321,1.248l-3.938,3.578
		c0.356,0.536,0.177,1.437-0.179,2.318v0.366c-0.179,0-0.179,0-0.179,1.077c0,0.535,0,1.43-0.718,1.783l-0.895,1.613v-0.177
		c-0.363,0.895-0.719,1.613-0.719,3.219l-0.714,2.324l-1.251,2.684c-0.897,0-1.071,0.529-1.071,0.895
		c0,0.353,0.173,0.535,0.173,0.717l-1.786,4.826l-0.536,0.189c-0.718,0.53-1.254,2.495-1.433,2.854c0,1.43,0,2.147-0.18,2.147
		l-4.117,8.405c0,0.183-0.536,1.437-0.536,1.789c-0.362,0.359-1.25,2.859-1.969,3.579c0,0,0,0.353-0.173,0.176
		c0,0.177-0.18,1.431-0.18,1.613l-0.897,1.788l-1.969,2.86l-1.068,1.613v-0.176c-0.183,0.358-0.362,0.528-0.718,1.612v-0.366
		l-1.965,3.579v1.253c0,0.537-1.254,2.325-1.613,2.502h-0.19c-0.535,1.253-1.612,1.612-2.5,2.866
		c-0.898,1.077-1.254,1.782-2.325,3.937v-0.188l-1.613,3.049l-2.321,3.037c-1.434,3.211-3.399,5.367-5.006,6.796l-1.789,2.325
		c-0.358,0.353-0.895,0.53-1.613,0.713l-1.787,2.86h-1.07l-1.613,2.5l-2.148,1.254l-1.612,0.896c-0.536,0-1.078,0.183-1.078,0.535
		h-0.173c-1.433,0.893-2.504,1.436-11.091,0.535c0-0.171-1.078-1.07-1.431-1.253c-0.718-0.36-1.433-1.248-1.433-2.502l-0.18-1.077
		c-0.718-0.176-0.718-1.248-0.718-1.431l-1.43-6.796v-2.155c0.353-0.713,0.173-1.248,0-1.967c0-0.528,0-1.788,0.353-1.788
		c1.433-0.895-1.078-3.396,1.253-3.396c0.537,0,0.889,0,1.251-0.183v-0.718c0.179-0.529,0.361-1.071,0.535-2.684
		c-0.897-1.248-0.897-2.685,0.363-3.755c0.352-0.713,0.352-0.713,0.715-0.895c0-1.789,0.897-3.213,1.612-4.825l4.297-7.157h-0.18
		c0.895-0.719,0.895-1.437,1.251-1.966c0.173-0.188,0.173-0.364,0.173-0.542c0.535,0.178,0.897,0,1.433-0.717
		c0.356-1.072,0.891-1.249,1.433-0.884c0.353,0.712,0.716,0.712,0.716,0.712c0.714-1.429,0.714-2.683,1.077-3.042
		c0.536,0,0.715-0.718,0.715-1.966c0.183,0,0.355-0.189,0.355-0.9c0-0.183,0-0.36,0.18-0.535c0,0,0.183-0.72,0.183-0.889
		c0.895-2.148,1.612-0.183,3.578-1.431c1.254-1.613,2.149-2.86,1.969-4.474c0-0.182,0.181-0.365,0.363-0.365l1.07-1.965v0.177
		c0.18-0.536,0.895-1.071,0.895-1.254c0.183,0,0,0.183,0,0.359c0,0.359,0.183,1.253,1.077,1.253v-1.077
		c0-0.353-0.179-1.072-0.179-1.789c0.535,0,1.077-0.17,1.612-0.53h0.536c0-1.79,1.07-0.542,1.965-1.436
		c0.362-0.718-0.18-1.43,0.362-1.43h0.535c0.362,0,0.715,0,0.715-0.183c0.362-0.536,0.897-1.077,1.254-1.248
		c0.352-0.176,0.715-1.254,0.894-2.684c0-0.365,0-0.718,0.177-1.083c0.18-0.359,1.613-1.248,1.786-1.248l1.078-0.895
		c0.715-0.717,1.433-1.789,2.504-1.789c1.25,0,0.894-3.578,1.966-0.894c1.076-0.366,1.253-0.366,1.433-0.718
		c0.173-0.535,0.173-0.895,0.173-1.437c0-0.176,0.183-0.528,0.363-0.528l1.968-1.614c0.174-0.718,0.715-1.437,1.251-1.612
		l0.535-1.084c0.363,0.189,0.363,0.542,0.363,1.26h1.43c0,0-0.537-0.717-0.353-1.435c0.173-0.366,0.714-1.248,1.25-1.437l0.715,1.26
		c0-0.188,0.183-0.901,0.363-1.26c0.714,1.789,1.07,1.437,1.786,0.542v-1.437c0.355,0,1.968-0.888,2.504-1.247l0.888-0.366
		c0.362-0.176,1.254-1.071,1.254-1.965c0-0.366,0.353-0.718,0.353-0.895c0.183,0,1.077-0.182,1.254-0.719l0.894,0.719
		c0.536-1.084,0.899-1.254,1.614-1.612l0.717-1.967v-0.176c0-0.183,0.181-0.183,0.181-0.183c0.179-1.972,1.07-3.042,2.321-3.22
		c-0.18-1.436-0.536-1.612-0.18-1.965c0.715-0.895,0.363-1.789,0.18-2.325c0.535-0.711,1.612-1.43,2.504-1.971
		c0-1.247-0.536-2.142,0.179-2.854c0.177-1.972,0.536-3.761,1.434-5.367c0.535-0.888-0.537-1.783-0.537-3.396h0.356l0.18-1.248
		h0.178v-1.789l0.719-2.319l-0.363-0.359v-0.535c-0.715,0.535-1.612,0.894-2.321,1.253c-0.718,0.353-0.898,1.071-0.898,1.43
		l-1.968,2.148c-0.895,0-1.613,0.536-1.786,1.078l0.179-0.176l-0.715,0.895c0,0.176-0.355,0.359-0.355,0.536v-0.183
		c-0.716,1.253-1.43,2.324-3.037,1.964c-0.183,0.542-1.613,1.254-2.148,1.79c-0.535,0.719-1.613,1.966-2.503,2.149
		c-0.354,0.534-0.537,0.9-0.354,0.9c-1.968,1.783-2.683,2.324-4.296,2.86c-0.718,0.535-2.148,0.894-3.401,0.894
		c-0.537,0.353-1.251,0.542-1.966,0.542c-1.613,0-3.226-0.719-4.653-1.79c-0.534-0.353-1.786-1.253-1.968-1.612l-1.078-1.614
		c0-0.718,0-2.507-0.178-3.578c0.361-0.894,0.897-2.318,1.433-3.213l1.077-1.971c0.715-0.895,1.612-2.325,2.684-3.037l1.787-2.147
		l0.897-1.248l0.353-0.188c0,0,0.362-0.354,1.077-0.712c0.719-1.43,1.072-1.783,1.79-2.325l1.786-1.43l0.897-1.077
		c2.863-2.148,5.185-3.401,7.869-3.579c1.072,0.177,2.322,0.36,3.393,0.36c1.613,0.183,3.402,0.358,5.368,2.148v-0.177
		c0.183,0.177,0.718,1.424,0.718,1.612c0.179,0.353,0,0.712-0.183,0.895l0.718,0.36c0.536-0.712,1.43-1.255,1.966-1.973l1.612-1.071
		l2.149,0.359c0.536-0.359,0.897,0,1.613,1.254c1.253,0.894,1.789,0.528,1.613,1.965c0,0.895,0.183,2.508-0.715,3.761
		c0.179,0.712,0,1.783,0.362,1.973c0.18,0.711,0.353,1.782,0.18,2.495c-0.715,0.365-0.715,1.259-0.715,1.613
		c-0.183,2.873,0.353,5.367-1.969,7.338c0,0,0,0.183-0.362,0l0.535,1.966c0,1.253-0.179,2.325-0.535,3.043
		c-1.431,1.965-2.857,3.578-2.148,6.25L-278.723-17.285z M-290.529-3.513l-2.857,2.154h-0.897l-0.363,0.529
		c-0.353,0.718-0.714,0.895-0.714,1.253l-0.536,0.359l-0.715,0.542l-0.535,0.895c-0.356-0.365-0.535,0.353-0.892,0.895l-2.684,1.071
		c-0.179,0-0.715,0.177-0.897,0.536h-0.18c-0.536,1.071-1.25,1.971-2.505,2.5l-1.25,0.719l0.179,0.176
		c-0.715,0.718-1.965,1.437-2.328,2.332c-0.897,0-0.897,0.711-0.897,0.711c-0.888,1.078-1.965,1.431-1.965,1.431l-0.715,1.083
		l-3.045,2.142l-1.433,0.895c0,0.366-0.18,1.083-0.18,1.26c-0.173,0.529-0.535,1.423-0.892,1.783h0.177
		c-0.718,0-0.897,0.901-0.897,1.077l-0.536,1.613c-0.18,0.365-1.077,0.365-1.613,0.365l-0.897,0.895
		c-1.078,2.143-1.43,2.318-1.966,2.684l-1.612,1.789l-0.693,0.869c-1.25,1.783-2.321,3.038-2.68,3.396c0,0.535,0,0.535-0.363,0.719
		c-0.717,0.359-0.897,1.076-1.077,1.43c-0.536,1.254-1.071,1.613-1.786,1.613c0,0.182,0.173,0.536,0.353,0.894
		c-0.536,0-1.786,1.438-1.786,2.155c-0.536,1.613-1.072,2.684-1.613,3.214c-0.898,0.717-4.469,6.79-5.367,8.762
		c-0.715,1.255-0.536,1.783-0.715,2.685c0,0.17-0.535,0.711-0.898,1.254c-0.535,1.07-1.433,3.036-1.612,4.473
		c0.18,0.711,0,1.247-0.18,1.783V61.25c-0.536,0.171-0.536,0.529-0.536,0.712l-0.363,0.713c-0.355,0.541-1.077,2.33-1.077,2.33
		c-0.535,1.072-0.535,2.495-0.535,3.755c0,0.541,0.18,1.071,0.18,1.966c0,0.365,0.182,0.718,0.182,0.901
		c0.173,0.359,1.071,0.9,1.43,1.253c0.536,2.501,0.898,2.684,1.79,2.501h2.856l0.895-1.254l0.898,0.354c0.535,0,1.785,0,3.04-0.883
		c0.358-0.542,0.358-0.901,0.358-0.901l0.537,0.359l1.433-1.79c0.362,0.36,0.715,0.529,1.25-0.176
		c0.356-0.176,0.719-0.895,1.969-0.895c0.535-1.966,1.071-3.225,2.857-3.049c0-1.43,0-1.612,0.718-1.612
		c0.359-0.178,0.895-1.248,1.078-2.145l0.535-1.435h1.43c0.183,0,0.718,0,0.718-0.718c-0.183-0.718-0.183-1.072,0-1.612
		c0.536,0,1.614-0.359,1.787-0.72c0.535-1.07,0.714-1.424,0.897-1.424c0.359-0.719,0.359-0.719,0.535-0.719c0,0,1.068,0,1.251-0.352
		c0.362-1.613,0-1.613,0-1.973c0.18-1.253,0.18-1.972,1.078-1.782c0-0.189,0.179-1.26,0.179-1.612c0.535,0,1.253-0.542,1.253-0.719
		c0.894-0.542,1.077-2.155,1.25-3.401l0.715-1.614l0.356-0.718c0.536,0,0.715-0.528,1.077-0.895
		c0.179-2.317,0.895-4.649,3.935-6.261l0.536-1.967c0.361,0.183,0.361-0.528,0.361-1.788c0,0,0.536-0.172,0.715-0.354
		c0.363-0.357,0.363-0.894,0.363-1.429c0.173-0.536,0.353-1.613,0.895-1.613c0.355,0,0.355-0.712,0.355-0.895l1.969-2.866
		l0.173-0.353l2.504-3.403c-0.176-1.612,0.359-3.402,1.25-3.931c0.18,0,0-0.365,0-0.542c0.356,0,0.356-1.43,0.356-2.142
		c0.36-0.718,0.716-1.789,1.078-2.154l0.714-1.247l4.653-8.587c0-0.359,0.173-0.889,0.173-1.254c0-2.318,0.535-5.544,2.503-4.825
		v-0.543l-0.898-0.529L-290.529-3.513z M-286.413-47.688c-1.433-0.536-3.219,0.177-4.831,0.718l-1.254,0.359
		c-0.716,0-1.251,0.17-1.613,0.359l-0.894,1.424l-0.719,0.365l-1.786,1.965c-0.362,0-1.251,0.542-1.251,0.542l-0.897,0.712
		l-1.613,1.613c-0.714,1.43-1.433,2.501-2.148,3.043l-1.434,1.424c-0.535,0.542-1.25,1.613-1.43,2.86l-1.253,2.325
		c-0.18,0.183-0.18,0.359-0.18,0.535c0,0.177,0.898,0.535,1.25,0.718c0.719,0.177,1.434,1.071,1.969,0.352l3.399-0.718l0.898-1.248
		l1.077-1.083c1.077-0.353,2.148-1.248,3.575-2.495c0.36-0.541,0.715-0.541,1.077-1.083h-0.183l2.866-2.502v0.183
		c0.535-0.353,1.613-1.07,2.322-1.789c0.898-0.353,1.433-1.071,2.148-1.79l0.897-0.529l1.614-1.26l2.147-2.142l0.536-3.037
		C-283.911-47.153-285.524-46.97-286.413-47.688z"/>
	<path fill="#FFFFFF" d="M-157.995-43.568c-0.542-0.365-1.436-0.901-0.365-1.972c0.183-0.17,0.365-1.071,1.077-1.253
		c0.901,0.183,1.43,0.353,2.324,1.083c0.537,0.353,0.895,2.854,0.36,3.754c-0.182,0.177-0.182,0.177-0.711,0.177
		c-0.359,0.177,0,0.177,0.359,0.535c0.712-0.183,0.712,0.712,0.535,1.078c-0.535,0.535-0.535,1.07-0.353,1.789
		c0,0.529-0.183,1.43-0.718,2.142c-0.183,0.542-0.536,1.971-0.895,2.507c-0.542,0.718-1.083,1.613-1.789,2.318
		c-1.437,1.613-2.684,3.584-4.296,5.014c-0.353,0.712-1.789,1.425-2.508,1.784c-0.528,0.353-1.247,0.711-1.612,1.071
		c-0.895,1.612-2.854,2.501-4.649,3.761c-1.071,0.353-3.213,0.535-4.826,0.718c-0.542,0-1.437,0.177-2.331,0.177
		c-0.177,0-0.529,0-1.071,0.177c-1.789-0.895-3.754-1.614-5.368-2.86c-1.436-1.078-1.965-2.685-3.401-3.58
		c-0.177-1.435-1.078-2.506-0.719-4.119c0.177-0.895,0-1.966,0.354-3.213c0-0.176,0.188-0.542,0.366-0.895
		c-0.177-0.176-0.177-0.359-0.366-0.359l-0.895,0.359c0.183,0.529,0.183,0.895,0.895,0.895c-0.712,0.177-1.071,0.177-1.071,0.359
		c-1.254,1.613-2.687,1.973-3.938,3.043c-1.433,1.071-2.684,1.965-4.114,3.212c-1.613,1.965-4.116,3.938-6.621,5.903
		c-1.965,1.254-4.29,2.685-7.333,2.86c-1.07,0-1.968,0-2.503-0.175c-1.613-0.712-3.04-1.43-3.575-2.685
		c-0.537-0.359-0.537-0.359-0.537-0.535c-1.429-0.177-1.25-2.148-1.785-2.861c0-0.182,0-0.542-0.363-0.9
		c0.363-0.353,0.719-1.065,0.536-1.431c0-0.718-0.536-0.894-0.173-1.437c0.535-0.711,0.535-1.248,0.715-1.965
		c0.356-1.07,0.897-2.318,1.434-3.212c0.897-1.789,1.968-3.944,2.321-5.726c1.078-1.431,1.97-3.938,3.04-5.368
		c0.898-1.783,1.077-3.043,2.148-4.467c0.355-1.083,1.25-1.789,1.433-2.683c1.43-3.223,3.036-6.083,4.833-8.946
		c0.359,0,0.359-0.173,0.359-0.173c1.612-1.968,1.612-1.968,4.117-1.612c0.715,0.355,1.433,0.535,1.612,0.535
		c1.613,0.715,2.505,2.502,1.786,3.583c-0.178,0.173-0.178,0.531-0.535,0.531c-1.431,0.536-2.148,1.79-3.399,2.504
		c-0.173,0.355-0.536,0.718-0.356,1.071c0.183,1.077,0,1.789-0.894,2.507c-1.254,1.783-1.969,3.578-3.402,5.544
		c0,0.535-1.077,1.071-0.18,2.148c0,0.183-0.714,0.9-0.714,1.077c-1.791,1.965-2.148,4.29-3.756,6.262
		c-0.535,1.07-1.612,2.142-1.788,3.036c0,0.718-0.537,0.895-1.078,1.248c-0.353,1.071-0.895,2.324-0.895,3.401
		c-0.717,1.966-1.788,4.121-1.253,6.073v0.902h0.536c1.433-1.077,2.504-1.614,3.761-1.79c1.071-0.353,1.612-1.43,2.504-1.783
		c0.535-0.719,1.25-1.254,2.504-1.967c0.18,0,0.895-0.188,0.895-0.365c0.718-0.535,1.434-1.071,1.613-1.789
		c0.897-0.718,1.79-0.177,2.331-0.889c0.354-0.901,1.251-1.971,1.965-2.684c0.363-0.535,0.537-0.712,1.078-0.712
		c1.078-0.188,1.613-1.083,2.148-1.436l3.041-2.86c1.077-1.26,1.969-1.79,2.863-3.043c0.895-0.359,1.437-0.712,2.325-1.254
		c0.712-0.176,0.712-0.895,1.612-1.071c0.183,0.177,0.183-0.358,0.183-0.718c0-0.17-0.183-0.882,0.359-0.882
		c1.071,0,1.431-0.719,2.148-1.613l2.318-1.789c0.366-0.183,0.542-0.366,0.895-0.183c0.901,0,1.613,0,2.508-0.183
		c0,0,0.352-0.176,0.535,0c0.536,0.542,0.536,0.719,1.078,0.895c1.078,0.366,0.718,1.084,0.366,1.789
		c-0.19,1.253,0,2.684-1.973,3.402c-0.183,0.353,0,0.535-0.358,0.718c-0.177,1.789-1.613,3.037-2.155,4.826
		c0,0.542-1.07,0.718-0.895,1.083c-0.176,1.965-2.318,3.037-2.141,5.368c0.352,0.359-0.19,0.529-0.542,0.895
		c-0.353,1.789,1.613,4.649,3.767,5.72c0.176,0,0.353,0.183,1.247,0c0-0.359,0.366-0.719,0.536-0.719
		c2.501,0,3.938-1.423,5.903-2.495l0.365-0.188c2.854-2.684,5.896-4.826,8.221-7.862c1.612-2.331,2.501-4.839,3.573-6.98
		c0-0.189-0.177-0.542-0.177-0.542c0-0.718,0.719-1.612,1.613-1.247v-0.365H-157.995z"/>
	<path fill="#FFFFFF" d="M-146.378-37.848c0.354-0.542,0.895-0.718,1.248-1.083c0.718-1.071,2.154-5.002,2.684-5.897
		c0.353-0.542,0.541-0.895,1.253-1.071c0.536-0.718,1.078-1.789,1.973-2.507c0.529-1.07,2.494-2.142,3.395-1.247
		c1.253,0.718,0.712,1.789,1.972,3.043c0.353,0.711-1.613,4.466-2.331,5.009c-1.423,1.247-1.613,4.113-2.684,5.72
		c-1.071,0.895-0.881,1.965-1.423,2.86c-0.902,1.972-1.79,3.944-1.972,6.086c0,0.176-0.183,0.353-0.183,0.541
		c0.183,0.53,0.541,0.712,0.895,0.895c1.26-0.541,2.506,0.353,3.943,0c1.612-0.718,3.036-0.365,4.649-0.895
		c0.359-0.188,2.685-1.083,3.213-1.612c1.26-1.26,2.873-1.437,4.473-2.507c4.838-2.319,7.516-3.755,12.342-8.228
		c1.071-1.071,2.684-2.319,3.754-3.037c0.183-0.366,0.183-0.177,0.536-0.366c1.437-0.711,2.866-2.683,4.12-3.212
		c2.142-0.895,3.578-2.86,5.185-3.579c0.358-0.176,0.536-0.718,0.895-0.176c0.358,0.353,0,0.529-0.183,0.718
		c-0.712,0.711-1.43,1.423-1.43,1.783c0.536,1.972-14.843,15.561-15.744,16.097c-0.353,0.175-0.712,0.535-0.529,1.076
		c0.177,0.171-0.183,0.536-0.365,0.36c-1.965,1.424-3.219,2.495-4.65,3.395l-0.717,0.712c-0.176,0.365-1.43,0.189-2.148,0.542
		c-0.895,0.176-0.895,0.718-1.429,0.894c-1.072,0.719-1.79,1.437-3.219,1.79c-1.431,0.529-3.396,0.359-5.01,0.895
		c-0.894,0.365-1.429,0.895-2.859,0.895c-0.353,0-1.071-0.177-1.613-0.177c-1.613-0.353-3.578-1.253-5.367-1.965
		c-0.895-0.366-0.711-1.613-1.248-2.155c-0.176-0.176-0.176-0.353-0.365-0.895c-1.247-1.07-3.748-5.001-2.495-6.438
		C-147.449-33.917-147.096-35.882-146.378-37.848z M-133.854-64.326c0,0.535-0.718,0.718-0.359,1.613
		c0.359,0.718,0.359,1.434,0.359,2.324c-0.176,0.895-0.176,0.715-1.071,0.532c-1.26,0-1.971-0.532-2.684-1.786l-0.719-0.535
		c-1.253-0.895-1.437-1.965-1.789-2.863c-0.365-0.715,0-1.25,0.366-1.25c1.423,0.353,2.683-0.362,4.284-0.362l0.183,0.18
		c0.901-0.18,1.077,0.183,1.43,1.433V-64.326L-133.854-64.326z"/>
	<path fill="#FFFFFF" d="M-47.292-43.398c-0.529,1.43-0.529,1.253,1.613-0.535l1.965-1.071l0.541-0.366
		c0.529-0.896,1.966-1.966,2.86-2.495l2.507-1.612c0.53,0,1.072-0.189,1.248-0.719c1.437-1.254,3.037-1.437,5.19-0.183
		c0.177,0.359,0.53,0.535,0.72,0.535c0.352,0,1.071,1.248,1.071,1.437c-0.719,0.529,0.176,0.712,0.529,1.424
		c0.541,0.542,1.07,1.437,0.352,2.331l0.189,1.071l-0.359,1.083l-0.182,0.353c0.182,0.53,0.541,0.719,0,1.248v0.177
		c0,0.175,0,0.365,0.182,0.718c0,0.177,0,0.718,0.535,1.247c0.353,0.366,0.353,0.366-0.176,1.083
		c-0.189,0.53-0.359,1.248-0.189,2.854c-0.53,0.359-0.352,1.078,0,1.43c0.189,0.718,0.718,2.331,0.718,2.866
		c0.535,0.36,0.718,0.712,0.895,0.902l0.542,0.894v-0.183c0.17,0.183,0.711,1.077,1.783,1.43c0.534,0.183,1.429,0.718,1.971,1.083
		c0.177,0.354,0.712,0.354,1.43,0.354h1.966c0.535,0,1.43,0,2.147-0.354l2.685-0.365c0.183,0,0.365-0.176,0.535-0.176
		c0.183,0,1.078-0.359,1.253-0.718c1.965-0.353,3.037-1.071,3.756-1.784c0.894-0.535,1.788-0.901,3.401-0.901v-0.711
		c1.43-0.359,1.43-0.901,2.142-1.614l2.154-0.711c0.176,0.176,0.353,0,0.353,0c0.176-1.071,1.612-1.437,2.331-1.972l2.319-1.43
		c0.718-0.365,1.248-0.365,1.789-1.253c0.717-0.536,0.176-2.685,4.473-1.255L9.59-37.129l-0.902,0.176
		C8.16-36.777,7.977-36.6,7.977-36.235c0.183,0.895-0.17,1.43-0.359,1.789c-0.177,0-0.353,0.177-0.353,0.354
		c-0.718,0.528-1.072,0.718-1.613,0.894c-0.542,0.177-1.612,1.248-1.79,1.79l-1.071,0.895l-3.578,1.612l-1.254,1.248
		c-1.972,1.083-3.219,1.971-5.186,2.684l-1.436,1.26c-0.359,0.353-1.247,0.53-1.612,0.712l-2.501,0.711
		c-1.43,1.084-2.867,1.437-4.832,0.901h-1.254c-1.43,0-2.854,0-3.937-0.901h-0.895c-0.894-0.176-1.247-0.176-2.684-0.711
		c-0.353-0.183-0.719-0.536-1.07-1.254c-1.078-0.353-1.613-1.43-2.149-1.789l-0.895-0.529l-0.536-1.254l-0.894-0.901
		c-1.613-1.071-1.972-1.613-2.325-3.037c0,0-0.712-0.359-0.712-0.718c-0.365-0.542-0.542-0.895,0.353-1.071
		c0-0.183-0.353-0.183-0.353-0.366v0.183c-0.189-0.359-0.365-0.359-0.365-1.078c-0.177-1.788,0-3.218,0-5.001
		c0.176-0.901,0-1.972,0-2.86c0-0.365,0.365-0.542,0.365-1.084l-0.189-0.529c-0.176,0.176-0.353,0.176-0.529,0.176v-0.529h-0.183
		v-0.189h-0.711v0.365c-0.542,0.177-1.083,0.535-1.083,1.078c0,0.9-0.353,1.071-1.071,1.253c-0.895,0.359-1.429,0.719-1.789,1.247
		c-0.176,0.542-0.712,0.719-1.965,1.613c-0.353,0.177-0.719,0.353-0.895,0.719c0,0.353-0.353,0.895-0.536,0.895
		c-0.712,0.176-1.43,0.542-1.783,0.895l-0.542,0.895c-0.175,0.177-0.359,0.177-0.53,0.536c0,0.535-0.541,1.077-1.788,1.612
		c-0.542,0-0.895,0.536-0.895,1.253c-0.543,0.895-0.719,1.248-1.261,1.613v0.177l0.19,0.718l-0.719,0.365
		c-0.541,0.895-1.253,2.143-1.613,3.213c-0.895,0.719-1.253,1.614-1.253,2.507c-0.17,0.53-0.17,1.613-0.712,2.143
		c-0.358,0.542,0.176,0.542,0.712,1.437c0,0.176,0.358,2.148-2.325,1.965v0.183h-0.176c-0.536,0-1.254-0.359-1.966-0.536
		l-2.154-2.507c0-0.176-0.169-0.529-0.169-0.712c0-0.17-0.183-0.888-0.36-1.253v-1.285l2.143-3.932l0.358-0.535
		c-0.358-0.711-0.182-1.077,0-1.613c0.183-0.182,0.183-0.535,0-0.9c0-0.712,0.36-1.248,1.078-1.424c0,0-0.365,0.177,0-0.188
		c0.719-0.53,0.895-1.248,0.719-1.965c0-0.719,0-1.43,0.176-2.142l0.177-0.188v-0.177l-1.79,1.789
		c-0.895,1.613-2.5,3.044-3.761,4.467c-0.712,0.535-1.071,1.972-2.684,2.148c-0.889,0.536-2.684,2.685-3.219,3.579
		c-0.889,0.901-3.572,1.437-3.22,3.043c0,0-0.353,0.359-0.894,0.359c-1.071,0-1.43,0.535-2.501,1.436
		c-0.542,0.529-1.613,1.248-2.683,1.431c-0.542,0-0.901,0.182-0.901,0.534c-0.359,0.895-1.431,2.148-2.147,2.684
		c-1.078,0.359-1.79,0.718-2.149,1.43c0,0.358-0.183,0.358-0.536,0.712c-1.078,0.541-2.318,0.718-3.578,1.07l-3.22,1.437
		c-1.077,0.718-2.5,0.176-3.571,0c-1.084-0.366-2.155-0.895-3.049-1.437c-0.529,0-0.894-0.353-1.248-0.353
		c-0.719-1.072-2.155-1.783-2.684-2.318c-0.895-0.366-1.253-0.895-1.436-1.613c-1.072-1.613-2.861-6.792-3.037-8.051
		c0-1.967,0.718-3.58,0.718-5.721c0-0.353,0.529-0.895,0-1.966v-0.366c1.43-1.788,1.43-3.218,1.248-4.648v-0.895
		c0.718-0.542,0.365-1.79,0.542-2.507c3.578-13.057,8.221-25.398,11.982-31.301c0.352-0.356,0.352-1.071,0.352-1.433
		c0.536-0.715,1.078-1.431,1.253-2.857v-0.179c-0.182,0-0.182,0.179-0.358,0.179c-0.542,0.536-1.973,0-2.684,0
		c-0.902,0.356-1.437,0.174-2.332,0.356c-2.318,0.535-5.191,0.359-7.685,1.25c-2.507,0.356-5.192,0.535-8.052,1.25
		c-1.789,0.362-3.767,1.077-5.727,0.897c-1.613,0-2.867-0.18-3.761-1.786c-0.718-1.077-1.43-1.969-1.79-2.857
		c-0.712-1.254-0.712-1.433,0.719-1.612c0.894-0.536,2.147-0.718,3.931-0.363c0.359,0,0.542-0.183,0.719-0.355
		c0.895,0,1.965-0.18,3.037-0.18c0.541,0,1.436,0.18,2.154,0c0.529-0.18,0.895-0.536,1.247-0.536
		c1.084,0.536,1.966-0.355,3.037-0.355c1.26,0,2.155-0.536,3.226-0.36c0.718,0,1.07,0,1.79-0.183c0.529,0,1.247-0.715,2.494-0.173
		l4.838-0.536c1.966-0.535,4.114-0.535,6.256-0.897c0.712,0,1.253-0.173,1.613-0.353c0.353-1.253,1.07-2.324,1.613-2.867l0.712-1.25
		c0.9-3.399,1.971-6.083,4.12-9.123c0,0,0.176-0.535,0.176-1.077c0.36-1.968,1.965-3.575,2.86-5.004
		c0.718-1.79,2.325-3.046,2.86-4.117c1.79-3.762,4.65-6.619,6.439-9.302c1.613-1.969,3.402-4.117,5.191-5.724
		c2.149-1.25,3.761-3.037,5.903-4.296c0.536,0,1.783-0.715,3.219,0.183c1.248,0.895,2.319,1.25,3.754,1.613
		c1.248,0.894,0.366,2.5,0.718,4.114c0.529,0,0,0.356-0.365,0.535c-0.359,0.362-0.717,0.898-0.717,1.613
		c0.541,0.898,0.188,1.077-0.53,1.254c-0.719,0-0.895,0.894-0.895,1.786c0,2.857-1.613,4.291-2.332,6.438
		c-1.254,0.536-1.789,1.787-2.684,2.684c0.176,0.895,0.176,0.895-0.183,0.895l-1.253,0.183c0.542,0.359,1.071,1.076,1.071,1.25
		c0.183,0.716,0.183,1.072-0.529,1.072c-0.542,0.897-1.083,0.897-1.437,1.969c0,0.535-1.247,1.25-1.612,1.786
		c0.176,0.714,0.176,1.612-0.718,2.147c-0.889,0.898-1.613,1.078-2.142,2.322c-0.359,2.866-2.154,3.761-3.754,5.903
		c-0.902,0.183-0.902,0.897-1.261,1.968c-0.353,0.715-0.353,1.612-0.712,2.322h0.359c1.254-0.18,2.325,0,3.755-0.18
		c0.542,0.18,0.895,0.18,1.083,0.363c1.071,0.535,1.966,0,2.854,0.353c0,0,0.183,0,0.358-0.179c1.084-1.434,3.037-0.356,4.839-0.536
		c0.894-0.18,1.248-0.18,2.141,0h0.542c1.247,1.078,2.677-0.18,3.748,0.536c0.718-0.898,2.148-0.173,3.042-0.356
		c1.071-0.18,2.319-0.36,2.861,0.898c0,0,0.718,0,0.718-0.181c0.177-0.717,0.895-0.717,1.614-0.361
		c0.717,0.179,1.429,0.179,2.147,0.179c0.183-0.353,0.536-0.535,0.894-0.895l0.902-0.897c-0.183-1.07,0.176-1.433,1.071-1.969
		c0-0.358,0.359-0.715,0.542-0.894l1.071-1.254c-0.359-0.352-0.176-1.07,0.358-2.321c0.36-0.18,0.537-1.25,0.712-1.786l1.437-1.434
		c0-0.536,0.176-1.078,0-1.25c0-0.718,0-0.897,0.176-1.253c1.071-1.787,2.507-2.857,2.155-5.542
		c0.712-0.362,0.712-0.714,0.712-0.897l0.535-1.612l2.148-3.037l1.43-2.684l-0.177,0.179l0.537-0.897
		c0-0.896,0.17-1.612,0.535-2.322l3.219-5.72l1.966-3.582l4.114-7.688c0-0.537,0.542-0.892,1.07-1.787l1.083-1.433
		c0.359-0.715,1.249-1.251,1.784-1.434v-1.612c0.711,0,0.9,0,0.9-0.18c0-0.535,0.17-1.612,0.712-1.786
		c-0.535,0-0.535-0.536,0.183-1.969l-0.183,0.179c0.535-1.25,0.901-2.5,2.5-2.684c0.353-1.786,1.438-2.857,2.508-3.934
		c0.176-1.078,0.529-1.787,1.43-2.322l3.043-4.652c-0.19,0,1.247-2.148,1.965-2.684l0.529-0.535c0-0.173,0.188-0.898,0-1.071
		c0.188-0.362,0.188-1.613,0.188-1.613c1.072,0.536,1.424,0.355,1.613,0l0.895-1.25c1.965-2.321,3.213-3.399,4.297-4.47h0.354
		c0.175-0.183,1.076-0.183,1.429-0.183c0.359-0.18,0.719-0.715,1.254-0.715c2.318,0,4.114,1.612,5.903,3.934
		c0,1.077,2.854,1.25,2.148,3.219c0,0.535,0,0.715,0.177,1.077c0.359,0.535,0.9,1.613,0.9,1.969c0,2.321-0.536,3.762-0.9,5.72
		c-1.248,3.22-3.037,8.408-5.002,11.989l0.176-0.718l-1.783,4.473c-0.359,0.18-0.901,0.715-0.901,1.251
		c-0.359,1.968-0.359,3.046-1.612,3.581c0,0.18-0.53,0.716-0.53,0.716c-1.253,2.501-2.507,4.65-4.296,6.98
		c-0.718,0.715-1.254,1.25-1.254,2.148c-0.169,0.537-0.359,1.078-1.782,2.863c-0.19,0-0.19,0-0.19,0.356
		c-0.175,1.077-0.712,1.786-1.612,2.321c-0.353,0.362-1.07,1.078-1.613,1.969l-0.712,1.251c-0.359,0.535-0.536,1.433-1.972,2.321
		c-0.353,0-0.529,0.715-0.894,1.786l-0.895,1.434l-5.903,6.258c-0.17,0-0.17,0.353-0.359,2.502
		c-0.895,0.183-1.966,0.718-2.142,1.612c-0.542,0.183-0.542,0.183-0.542,0.719l-3.396,3.934l-0.895,1.787
		c-0.536,0.183-0.719,0.183-0.719,0.535c0,1.434-0.352,1.789-1.253,2.149c-0.712,0-1.071,0.175-1.247,0.175
		c0,0-0.354,0.36-0.354,0.537l-0.183-0.183c0.536,1.077,0,1.789-0.358,2.321c-0.895,1.254-2.325,2.868-3.755,4.474
		c0.177,0.18,0.529,0.535,0.895,0.535c0.536,0.18,0.536,0.537,0,0.537c-0.718,0.535-1.789,0.358-2.508,0.535
		c-0.176,0-0.359,0.18-0.359,0.18l-1.071,0.892l-0.536,0.715c-0.717,1.786-2.86,4.47-3.572,5.006l-1.79,1.077l-1.612,1.968
		c-1.254,1.251-2.325,3.22-3.219,4.291l-1.078,0.715c0,0.173-0.183,0.536-0.183,0.536l-0.711,1.612
		c-0.176,0.362-0.176,0.362-0.176,0.535l-1.077,1.613c-0.177,0,0,0.362,0.353,1.433c-1.247,0.537-0.712,0.716-1.247,1.431
		l-0.895,2.324c0,0.179-0.366,1.074-0.366,1.251c0,1.247-0.353,2.507-1.612,3.225l-0.176,0.536c-0.36,0.901-0.53,1.783-0.53,2.684
		L-47.292-43.398z M-69.834-78.627c-0.529,0-0.712,0.714-1.43,0c-0.353,0-0.712,0.355-0.712,0.355
		c-0.359,0.359-0.542,0.359-0.718,0.359c-0.535,0.536-1.077,1.078-1.789,1.433c-1.613,1.613-2.148,2.148-3.402,3.935
		c-1.424,1.969-5.368,9.658-6.439,11.444c-0.711,0.898-1.423,1.433-2.495,2.325c-1.971,2.145-2.507,4.469-3.944,6.797l-1.965,5.008
		c-0.529,1.248-1.248,2.684-1.248,4.297c-0.183,0.718-0.542,1.247-0.895,1.789c-0.542,0.529-1.26,1.071-0.9,2.319v0.894
		c-0.901,1.072-1.253,1.966-1.613,4.121c-0.169,1.965-0.711,4.113-1.254,6.256c0,0.712-0.529,1.972,0,2.684
		c0.184,0.9-0.359,1.613,0.353,2.5c0,0.718-0.529,1.613,0.366,2.148c0.175,0.535,0.175,0.9,0.175,1.077
		c0.36,0.895,0.542,1.613,1.072,2.325c0.541,0.535,1.436,0.535,2.154,0c3.037-1.078,5.72-1.972,8.228-3.402
		c1.424-0.535,2.854-0.712,3.932-2.148c2.318-1.612,6.974-4.113,10.552-6.263c0.718-1.07,2.501-2.318,3.754-4.119l0.719-0.171
		c0.353,0.889,0.711,0.889,0.536,1.254c0.536-0.366,0.718-1.254,0.718-1.254s-0.365-0.358-0.542-0.358
		c0.542-0.183,0.719-1.083,1.437-1.79c0.177-0.535,0.894-0.352,1.789-0.535c1.43,0.535,1.43,0.535,1.966-1.078
		c0-0.535,0.176-0.895,0.718-1.248c0-0.365,0.528-0.365,0.711-1.436c0.177-0.353,1.973,0.895,2.502-1.437
		c0.176-1.07,1.071-1.248,2.325-1.782c0.718-0.712,1.071-1.613,1.253-2.148c0-0.177,0.176-0.177,0.359-0.366l0.535-1.248
		c0.365-1.077,1.436-3.219,1.436-3.219v-0.536c0-0.176,0-0.535,0.177-1.077l2.508-5.903l0.528-1.786v-0.718
		c0.183-0.715,0.183-1.431,0.718-1.966l0.537-0.535l0.9-1.434c-0.365-1.612,0.353-1.964,1.248-2.148
		c0-0.179-0.177-0.179-0.536-1.077l1.253-2.149v0.174c0-0.174,0.529-0.354,0.529-0.715l0.542-1.969l0.529-0.894l0.365-1.613
		l0.537-1.434l0.358-0.716l0.895-3.574v-0.536v-0.328c0-0.179-0.353-0.179-0.895-0.179c0,1.43-0.895,0.535-1.79,0.535
		c-0.894,0.715-0.894,0.715-0.894-0.356v-0.535h-0.177c-2.683,0.897-3.938,1.786-5.008,1.613c-0.17,0-0.17-0.173-0.353-0.173
		c0,0,0.183-0.536,0.353-0.536c0.359-0.355,0.9-0.355,1.253-0.355c-0.366-0.18-1.083-0.535-1.436-0.18c-0.895,0-1.431,0.18-2.143,0
		c-0.541,0-1.071,0.18-1.253,0.18c-0.901-0.535-1.43-0.18-2.147,0.535l-1.072,0.535c-0.365-0.173-0.718-0.173-1.077-0.173
		c0-0.183,0-0.362,0.359-0.362c0.353-0.18,0.895-0.535,0.718-0.898c-0.365-0.18-1.077-0.353-1.077-0.353h-2.501
		c-0.183,0.173-0.718,0.353-0.718,0.173c-1.437-0.535-1.966,0.536-3.22,0.536c0,0-0.358,0.18-0.358,0.355
		c-0.36,0.536-0.542,0.536-1.254,0c-0.183,0-0.536,0.36-0.536,0.536c0,0.173,0.353,0.715-0.365,0.715
		c-0.177,0-0.529-0.362-0.712-0.715c-0.718-0.718-0.718-0.718-1.613,0.173C-68.933-78.806-69.469-78.989-69.834-78.627z
		 M-79.126-77.918c-1.613,0-3.043,0.183-4.656,0.355c-0.712,0.18-1.071,0.18-1.424,0.18c-1.789,3.582-5.366,14.846-5.014,15.922
		C-88.79-60.209-82.169-72.724-79.126-77.918z M-60.346-106l0.895-5.185c0.718-0.183,2.324-2.331,2.324-3.219
		c0.359-0.718,2.502-5.903,1.254-5.73c-0.9,0-3.585,3.934-4.473,5.368l-4.473,4.47l-2.5,4.296c-0.36,1.078-0.536,1.786-2.149,3.582
		c-4.473,4.832-7.156,11.979-11.27,18.245l-0.535,0.714c0.176,0,0.176,0,0.353-0.179c1.253-0.183,2.154-0.719,3.578,0
		c0.19,0.179,0.718,0,1.253-0.183c0.537-1.431,1.077-2.857,2.502-3.399c0,0,0.717-1.07,0.717-1.968
		c-0.717-1.077,0.536-1.25,1.078-1.25c1.971-1.433,1.971-1.433,2.148-2.322c1.613-3.219,3.938-5.544,5.008-8.587L-60.346-106z
		 M-73.223-26.407l1.613-1.431c0-0.182,0.353-0.182,0-0.182L-73.223-26.407z M-56.415-37.672h0.183H-56.415z M-34.945-79.342v0.536
		l-0.901,0.894l-0.359,2.504l-0.176,0.536v0.535c0.176,0,0.353,0,0.895-0.535l0.894-1.434l2.155-3.219
		c-0.542,0-0.895,0.183-1.612,0.183H-34.945z M3.68-127.816c0.535-0.363,1.613-1.078,1.783-1.613c0-0.18-0.176-0.18-0.176-0.536
		c0.536-3.761,0.718-3.935,0.718-4.47c0-0.718,0-0.718,0.353-1.254c0,0,1.248-1.613,2.148-3.225l3.043-6.612
		c1.424-0.18,1.247-0.715,1.247-1.786c0.354-3.402,1.613-5.724,3.22-7.872c-0.183-2.149-0.183-3.219,0-4.47h0.17l0.182-0.362
		l-0.353-0.174c-0.183-0.535-0.183-0.535-0.901-0.361l-3.383,2.51l-1.971,1.786l-3.755,4.291c0,0.362-0.177,0.535-0.177,0.535
		c-0.176,0.715-0.718,1.786-1.965,2.856c-0.352,0.183-0.895,1.254-1.253,2.326c-0.712-0.177-0.712-0.177-0.712,0.535
		c0,0.179,0,0.536-0.188,1.071l-1.966,2.501c-0.718,0.362-0.895,1.254-1.071,1.968c-0.542,0.716-1.436,1.434-2.155,1.613v0.715
		c0,0.535-1.248,2.684-1.966,2.684v0.718l-0.894,1.431l0.359-0.18c-0.359,1.077-1.078,2.148-1.783,3.045l-1.083,1.966l-1.248,2.867
		c-0.718,0.894-1.965,3.399-1.965,3.399c-1.437,1.612-2.154,3.219-3.402,4.832l-1.436,2.685l-0.359,0.172
		c0.359,1.969-0.895,3.22-2.325,4.47c-0.352,0.356-0.895,1.07-0.712,2.504l-0.9,1.612c0,0.179-0.176,0.353-0.712,1.072
		c-0.359,2.148-1.613,4.296-2.683,5.719l-2.148,4.297v0.182l-0.365,0.715l-1.783,1.968h-0.184l-2.148,3.399l-0.535,1.613h-0.177
		l-0.183,0.715v0.17l-0.536,0.358l-0.895,2.325c1.071,0.18,2.143,0.36,3.214,0.715l1.436-2.148l2.148-2.322
		c0.353-1.968,1.254-2.866,3.579-1.433c0,0,0.359-1.251,0.359-1.434c0.895-2.684,1.613-4.47,4.649-4.47
		c0.536-0.18,0.176-0.898,0-1.786c-0.536-1.79,0.176-2.325,0.718-3.22c0.169-0.183,1.613-1.789,2.684-0.183c0,0,0,0.183,0.359,0.183
		l-0.359-0.183l2.86-4.113c-0.535-1.79-0.535-2.325,1.79-3.04l0.529-3.398c0.189-0.536,1.084-1.786,1.79-2.322
		c0.895-2.148,2.155-3.937,4.12-4.296c0.718,0,0.895-0.183,0.718-1.253c-0.188-2.501,1.071-3.042,2.495-2.864
		c0.901-0.179,0.901-0.179,0.542-2.321c-0.542-0.715-0.542-2.857,1.789-1.612l0.354-1.078c0.176,0,0.359-0.719,0.359-0.897
		L3.68-127.816z"/>
	<path fill="#FFFFFF" d="M109.021-86.143c0,0.179-0.176,0.356-0.895,1.077c-0.177,0.173-0.177,0.714-0.177,1.07
		c0,0.179-0.175,0.362-0.719,1.078h0.178c-0.536,0.18-0.536,0.362-0.536,0.535l-1.612,3.22c-0.359,0.535-1.077,1.077-1.972,2.863
		c-0.353,0.718-0.529,0.898-0.529,1.077c-0.354,0.535-0.72,1.254-2.155,2.684c-0.529,0.718-1.07,1.612-0.895,2.504
		c0.183,0.891,0,1.613-0.894,2.504c-0.536,0.532-1.248,1.25-1.614,2.145c-0.175,1.072-0.894,2.325-1.965,3.576
		c-1.07,1.613-2.325,3.04-3.937,4.297c-0.184,2.148-0.901,3.581-2.502,4.652c0.177,1.254,0,2.149-1.613,2.501
		c0,0.183-0.352,0.535-0.352,0.535c0,0.888-0.366,1.973-0.542,2.501v-0.176c-0.354,0.541-0.719,1.071-0.719,1.613
		c0,0.718-0.896,1.26-1.612,1.789h0.188c-1.436,0.895-1.612,1.789-1.436,2.684c0,0.542-0.177,1.612-1.248,1.789
		c-0.359,0.365-1.083,1.789-1.261,2.683c0,0.177-0.175,0.536-0.175,0.895c0,0.177,0.353,1.071,0.534,1.254
		c-0.182,0-0.182,0-0.711-0.535c0,0.718-0.19,1.436-0.542,1.613c-0.359,0.176-0.719,0.353-0.529,0.894
		c0,0.719-0.895,1.437-1.436,1.613c-0.72,0.184-1.072,0.719-1.072,1.071l-1.077,1.965l-1.078,2.155
		c0.537,1.07-0.176,1.789-0.895,1.965l0.176,0.366l0.902-0.542c0,0,0.183-0.176,0.71-1.247c0.542-0.183,0.901-0.366,1.084-0.718
		l0.894-1.437c0.177-0.712,0.354-1.248,1.613-1.248l0.354-0.718c0.183-0.718,0.895-1.613,1.965-2.684l0.542-0.718l1.424-1.424
		l1.26-1.972H83.96l0.717-0.359l2.326-2.323h-0.17c0.352-0.172,0.895-0.537,0.711-1.255c0-0.358,0.901-0.718,1.973-0.718
		c0-1.247,0.529-1.966,1.424-2.677c0-0.183,0.176-0.183,0.717-0.183c0.542-1.79,0.72-1.966,1.79-1.966
		c0.536-1.789,1.966-3.219,3.402-4.12c0.359,0,0.894-0.177,1.07-0.359c0.365-0.353,0.543-0.712,0.9-0.712
		c0-0.9,0.359-1.437,0.713-1.789c0.719,0,1.261-0.535,1.261-1.433c1.245-0.362,1.965-1.251,2.494-2.322
		c0-0.183,0.189-0.535,0.189-0.535c0.176-0.362,0.712-1.253,1.246-1.613l1.789-1.612l1.431-1.79h-0.183l1.254-0.894
		c0.183,0,0.894,0,1.43,0.173l0.354-0.715c0-0.898,1.083-2.322,1.788-3.04c0.536-0.353,0.719-0.536,0.895-0.895
		c0.365-0.718,0.719-1.433,0.719-1.254l1.077-0.895h-0.183c1.79-0.718,3.401-2.325,4.296-3.219l4.121-3.582l1.79-1.25
		c0.352-0.536,1.245-1.789,1.782-2.324c1.077-0.536,2.33-1.613,2.866-2.684v0.176c0.895-1.077,1.789-1.789,3.219-2.147
		c-0.183-1.077,0-1.254,0.713-1.613l0.717-0.183l1.437-1.25l1.613-1.433l1.782-1.43c0.361-0.356,0.536-0.356,0.902-0.356
		c0.175-0.897,0.895-1.969,1.965-2.684c0.529-0.356,1.248-0.715,1.967-0.715l1.077-0.897c-0.184-0.535-0.184-0.715,0.182-0.898
		c0.718-0.18,1.966-0.895,2.142-1.077l1.084-1.071l2.141-1.786l0.72-0.362c0.366-0.353,0.894-0.888,1.612-0.888
		c0.719-0.536,1.437-1.254,1.967-1.968c0.542-0.716,0.899-1.434,2.507-1.613c0-0.363,0.535-0.898,0.895-1.077h0.718
		c0.177-0.536,0.718-0.898,0.895-1.071l0.718-0.18c0.895-1.433,3.402-2.866,4.649-3.582l0.535-0.355c0-0.536,0.36-0.715,0.719-0.715
		c0.535,0,0.712-0.356,1.077-0.888c0-0.183,0.353-0.535,0.353-0.535h-0.176l2.501-0.897c0.536,0,0.536-0.173,0.713-0.173
		c0.541-0.183,1.253-0.719,1.611-0.898l1.973-1.433c1.612-1.071,3.578-1.613,5.903-1.43c0.535,0,1.07,0,1.612,0.535l1.431,0.716
		h-0.183c2.153,1.433,4.295,3.219,4.119,5.541c0,0.535,0.359,1.612,0.529,2.321l0.358,0.898c0,1.25-0.358,2.684-0.898,4.296
		c0,0.536-0.179,1.613-0.354,1.97v-0.183l-1.07,1.078h0.177c-0.896,0.535-1.437,1.613-1.614,2.866
		c-0.895,1.43-1.789,3.572-3.219,5.541l-2.866,4.47l-1.612,2.866l-0.53,1.078c0,0.173-0.365,0.714-0.365,0.888l-0.895,1.613
		c-0.352,0.718-0.718,1.613-1.254,2.148l-1.077,1.614v-0.18c-0.353,0.363-0.534,0.536-0.177,0.898v-0.183
		c0.359,0.536-0.176,1.077-0.718,1.253c-1.437,1.067-2.324,3.399-2.859,5.365c0.183,0.362,0.183,1.433,0.183,1.968
		c-0.536,0.18-1.789,0.18-2.149,0.18c-0.534,0.891-0.717,1.968-0.353,2.683c0.17,0.362,0.17,0.897,0.17,1.79
		c-0.352-0.363-1.07-0.719-1.611-0.719c0.358,0.719,0.358,0.898,0.358,0.898c0,0.179,0.183,0.715,0.183,0.898
		c-1.078,0-1.613,0.353-1.783,1.43h1.071c0,0.183-0.176,0.362-0.176,0.362c-0.183,0.535-0.72,1.612-0.896,2.321
		c-0.183,0-0.183,0-0.541-0.359c-0.529,0.536-0.712,0.895-0.712,0.895v-0.18l-1.071,1.078l-0.9,2.147v-0.173
		c-0.177,0.173-0.359,0.353-0.359,0.535l-0.896,1.79c0,0.17,0,0.353-0.359,0.711c-0.357,1.072-0.712,2.149-0.712,3.043l0.171,1.248
		c0.366,1.248,0.184,1.613-1.247,1.79c0,0.176,0.535,1.247,0.718,1.43c-0.359,0.536-0.718,1.071-0.9,1.071l-0.895,0.36
		c0.534,1.083,0.895,1.966,0,2.507c-0.177,0-0.537,0-0.72-0.183l-0.352,0.183c0.534,1.613,0.534,2.86,0.17,4.297
		c-0.17,0.529-0.352,1.613-0.352,2.318c-0.36,0.183-1.079,0.542-1.432,0.183l-0.359,0.889v5.909l1.071,2.86
		c0.542,1.247,0.901,3.402,1.071,5.72c0.901,0.536,1.253,1.436,1.613,1.965c0.541,1.083,1.437,2.155,2.331,2.868
		c0,0,0.895,1.07,1.253,1.43c0.184,0.182,0.359,0.365,1.43,0.9h-0.176c4.113,2.501,8.763,2.854,13.418,2.684
		c0.529,0,0.529-0.183,0.713-0.183c0.711-0.177,2.147-0.358,2.866-0.177c1.431,0.359,2.684-0.182,3.571-0.718
		c0.537,0,1.078,0.176,1.078,0.176c0.177,0,0.535-0.176,0.718-0.176c0.719-0.183,1.966-0.536,2.144-0.536
		c0.176,0,0.541-0.358,0.717-0.358s0.353-0.183,0.542-0.183c1.07-0.359,1.247-0.536,2.318-0.176l1.438-1.253H191.5l0.717-0.36
		c0.713-0.353,1.424-0.712,2.495-0.712c0.359,0,0.901,0,1.26,0.177c0.529-0.535,1.782-1.613,2.685-2.149
		c0.528-0.359,1.071,0,1.967,1.254l-1.79,0.895c-0.719,0.535-1.612,1.077-1.612,1.077l-1.613,0.901h-2.149
		c-0.182,0.353-0.182,0.712,0,1.247c-1.069,0.366-2.325,0.536-2.501,0.536c0,0.535-0.354,0.718-0.718,0.718
		c-0.177,0-0.535,0.353-0.718,0.353l-0.177-0.353h-0.354c-0.188,0.353-0.365,0.535-0.899,0.895
		c-0.184,0.359-0.537,0.535-0.713,0.535c-0.541-0.176-1.083-0.359-1.611,0.183h0.169l-0.712,0.352l-1.614,0.359
		c-0.188,0.183-0.54,0.36-0.899,0.36c-0.536,0.183-1.254,0.358-1.783,0.358c-0.541,0-1.26,0.353-1.789,0.353l-1.084-0.529
		c-0.353,0-0.528,0-0.711,0.176h0.183c-0.719,0.183-1.255,0.535-1.79,0.183c-1.788,0.17-4.113,0.353-6.438,0.353
		c-0.178,0-0.536,0.36-0.536,0.536c-1.429-0.536-1.966-0.718-2.854-0.894h-2.154l-1.783-1.077c-1.254-0.719-3.584-2.684-5.367-4.656
		c-0.17-0.177-0.72-0.712-0.72-0.895l-0.711-0.895c-1.79-1.789-3.578-3.936-4.65-5.903c-0.899-0.535-1.436-1.43-0.899-2.5
		c-1.078-0.901-1.253-1.436-1.253-2.155v-0.711c-0.354-1.078-0.72-1.972-0.72-1.784c0,0-0.176-0.365,0.542-0.541
		c-0.542-0.896-0.542-0.896-0.542-1.071c-0.176-0.542-0.352-1.26-0.352-1.972v-1.613l0.541-1.43h0.353v-0.718
		c-0.177-0.536-0.353-1.79-0.353-2.508c0.176-0.353,0.176-0.895,0.176-1.424v-1.613c0,0,1.071-3.944,1.614-5.726l0.535-2.326
		c0.183-1.071,0.535-1.789,0.901-2.507c0.352-0.718,0.712-1.789,0.894-3.048c0.177-0.53,0.718-1.784,1.43-3.034
		c0-0.183,0.183-0.362,0.183-0.536c0.53-0.897,1.431-2.148,1.431-3.218l0.9-0.898l1.07-1.25H156.8
		c0.175-0.718,0.528-1.613,0.528-1.613c0-0.535,0-0.718,0.19-0.897l1.611-1.613c0-0.714,0.354-1.786,0.895-2.684
		c0-0.714,0.177-1.613,1.249-1.613l1.788-4.113c0-0.177,0.177-0.356,0.177-0.536c0.188-0.535,0.188-1.078,1.26-1.613h-0.189
		c0.358-0.183,0.9-0.535,1.438-1.789l0.535-1.071c0.183-0.535,0.358-1.25,1.253-1.613c0-0.715,0.359-1.25,0.529-1.613l1.613-2.863
		c0-0.537,0.182-1.078,0.364-1.434v0.183l1.077-1.253c0-0.353,0.172-0.715,0.354-0.894l0.898-1.434l0.896-1.25
		c0.176-0.362,0.353-0.897,0.353-1.078l1.789-2.863l1.431-2.325c0-0.179,0.359-0.535,0.359-0.715l0.711-1.25
		c0.359-0.535,0.718-1.79,1.077-2.503c0,0,0.895-1.251,1.614-2.504c0-1.431,0-1.966,1.077-2.148c-0.361-0.536-0.184-1.613,0-2.322
		c0.176-0.355,0.176-0.535,0.176-0.714l-0.176-0.898c-0.184-0.536-0.184-1.077-0.184-1.786h-0.894
		c-0.72,0.18-2.687,1.077-3.579,1.43l-1.255,0.892h0.183c-1.965,0.898-4.295,1.786-5.19,2.504h0.189l-1.084,0.714l-0.718,0.356
		c-0.177,0.715-0.896,1.787-1.071,1.787c-2.508,0-3.755,1.25-5.009,2.503l-0.712,0.895c-1.26,1.071-3.226,2.505-4.296,3.219
		l-0.72-0.359c-0.711,0-0.352,1.078,0,1.786h-1.245v1.077c-1.79,0.18-2.148,0.895-2.148,2.148c-1.613-0.897-1.784-0.718-1.784-0.718
		c-3.225,3.219-5.008,4.473-6.438,5.543c-0.541,1.251-1.253,1.613-1.972,1.966l-0.535,0.355l-1.077,0.362l-1.966,1.613l-2.148,1.785
		l-4.12,4.115l-1.613,1.433c0.542-0.179-0.712,0.536-1.429,0.898l-0.182,0.179c0,0.173,0.182,0.356,0.182,0.536
		c-0.895,0.536-1.255,1.078-1.613,1.433c0,0.715-0.359,1.43-1.613,1.43c-0.358,0.535-1.076,1.071-1.613,1.433h0.177l-0.535,0.356
		l-1.436,0.895l-1.614,1.433c-0.358,0.356-0.711,0.715-1.247,1.787c-0.176,0.362-0.535,0.362-0.718,0.362
		c-0.536-0.18-0.719-0.18-1.071,0.355l-0.358,0.359c-0.359,0.361-0.901,0.898-1.254,0.898c0,0,0,0.355-0.176,0.715v-0.18
		c-0.542,0.536-0.72,0.898-0.72,0.898c-0.182,0.359-0.534,0.715-0.894,1.077c-0.184-0.183,0,0,0-0.183h-0.365
		c-0.178,0.897-0.719,1.613-1.789,2.325c-0.354,0.359-0.529,0.359-0.529,0.536l-1.255,1.429h0.171l-0.712,0.356
		c-0.9,0.363-1.431,0.897-1.611,1.433c-0.36,1.072-1.432,2.148-2.503,2.684c0,1.251-0.894,1.609-2.324,2.322l-1.077,1.078
		l-0.895,1.077c-0.353,0.536-0.541,1.077-1.071,1.613c-1.084,1.43-3.037,3.218-4.474,4.466l-1.436,1.437l-0.895,1.436
		c-1.07,0.712-2.142,1.965-2.142,3.037c0,0.358-0.365,0.718-0.542,0.718c-1.789,0.529-1.789,1.07-2.143,1.423l-2.33,2.325
		c-1.072-0.182-0.895,0.536-0.895,0.901c-0.896,0.895-2.319,3.213-3.036,4.649c-0.366,0.359-1.249,1.078-2.148,1.078
		c-0.354,0.535-0.537,1.253-0.537,1.782l-0.895,0.9c-0.894,0.895-1.965,2.501-3.035,4.298l-0.902,1.076c0,0,0,0.177-0.183,0.353
		l-0.529,0.895l-1.972,1.972l-1.43,1.783c0,0.353,0,0.542-0.183,0.901l-0.183,0.535c-0.169,0.895-0.711,2.142-1.07,2.86L70.73-7.986
		c-0.36,0.359-0.719,0.718-0.719,1.248c0,0-1.078,2.325-1.612,3.226c0,0.176,0.176,0.529,0.358,0.712
		c-0.712,0.535-1.429,1.076-1.253,1.972v1.071c0,1.248,0,2.319,0.365,3.579c0.535,1.071-0.365,2.501-1.253,2.86
		c-1.254-0.176-2.325-0.359-3.037-1.437l-0.536-0.535c-0.535,0-1.077-0.535-1.253-1.253l-0.895-1.071
		c-0.901-1.071-1.254-1.789-1.43-2.318c0-0.366-0.183-0.542-0.183-0.895c-0.359-1.26-0.183-3.049,0-4.297
		c0.183-0.365,0.183-0.542,0.183-0.9c0-0.536,0.176-1.783,0.529-2.684c-0.171-1.43-0.171-2.501,1.436-3.572
		c-0.183-0.366-0.366-1.254,0-1.437l0.718-1.966c0.353-0.718,0.529-1.612,0.712-2.683l0.901-0.36c-0.183-0.718,0-1.43,0.529-2.148
		c-0.177-0.183,0.365-1.078,0.718-1.79c0-0.353,0.365-0.894,0.365-1.247c0.176-0.183,0.353-0.719,0.353-1.084
		c0-0.353,0.177-0.712,0.177-1.071c0-0.177,0.366-0.718,1.083-1.071l0.177-0.901c0-0.183,0.176-0.895,0.352-1.077
		c0.183-0.536,0.719-1.613,1.084-1.789c0.712-1.614,1.966-3.39,2.684-5.002v0.176l1.783-2.495l1.429-3.226v0.183l1.613-3.043
		c0.183-1.071,0.36-1.783,0.901-2.318h-0.183c0.536-0.176,0.895-0.718,1.078-1.248l0.358-0.358c0.895-0.712,1.785-1.613,1.785-2.501
		c0.182-1.437,0.716-2.154,1.428-2.867c0.72-0.898,1.438-1.786,1.613-2.684l0.543-0.536c0.352-0.356,0.712-0.715,0.712-1.612
		c0-0.18,0.358-0.537,0.899-1.078c0.171-0.173,0.53-0.715,0.53-1.25c0-0.362,0.183-0.718,0.718-0.718c0,0.183,0,0.356,0.535,0.897
		c0-1.968,0.536-3.582,1.973-4.832l0.176-0.363l0.718-1.786c0.354-0.715,0.537-1.969,0.896-2.684c0.536,0,0.719-0.173,0.895-0.173
		c0.542,0,0.718,0,1.254-0.535h-0.183c0.183,0,0.365-0.535,0.365-0.898c-0.183-0.714,0.177-1.612,0.535-2.148
		c0-0.18,0.358-0.895,0.535-1.077c0,0,1.071-0.895,1.248-1.071l0.365-0.36l2.684-5.008c0.177-0.353,0.359-0.715,0.359-0.536v0.183
		c0.359-0.536,0.718-1.254,0.718-1.969l0.536-0.536l2.501-4.296l0.9-1.077l1.072-2.148l1.787-3.219v0.183
		c0.178-0.183,0.536-0.536,0.536-0.898c-0.183-0.714,0.359-1.25,0.901-1.786c0,0,0.353-0.535,0.711-1.253
		c0.537-0.888,1.078-1.786,1.254-2.684c0-0.18,0.178-0.535,0.178-0.715l0.71-1.077c0-0.179,0.171-0.535,0.36-0.715l1.613-2.684
		c0-0.718,0.176-1.79,1.424-2.148c0-1.789,0.542-2.684,1.083-3.938l0.529-1.25c0-0.18,0.188-0.356,0.188-0.356l1.247-3.226
		l1.248-3.036l0.541-2.326v0.183c0.529-0.362,0.72-1.254,0.72-1.613c0-1.613,0.169-2.504,0.529-3.581
		c0.352-1.25,0.352-3.22,0.182-4.833l-0.358-0.895c-0.184-0.183-0.353-0.535-0.353-0.897l-1.79-0.715l-0.542-0.536
		c-1.071-0.535-2.854-0.718-3.754-0.718c-1.072,0.355-2.494,0.535-3.932,0.718l-3.578,0.536c-1.436,0.18-2.86,0.715-4.297,1.251
		c-0.719,0.353-1.789,0.535-2.86,0.714c-1.43,0.173-2.684,0.718-4.114,1.613h0.183l-1.253,0.536c-1.43,0.536-3.043,1.25-3.755,1.786
		c-1.612,0.183-2.501,0.718-3.22,1.434h0.177l-2.86,1.433c-1.965,0.894-4.12,1.787-5.001,2.684c-0.36,0-1.072,0.535-1.437,0.715
		c-0.718,0.535-1.437,0.897-1.79,0.897c-0.353,0-0.718,0.18-0.895,0.359l-1.248,1.254l-1.437,1.077
		c-1.077,0.714-2.506,1.613-4.296,2.501c-0.176,0.718-0.895,1.789-1.613,2.684l-1.788,1.254c-0.359,0.358-0.895,0.535-1.249,0.358
		l-0.541,0.537c0,0.355,0,0.535-0.353,0.897c-0.177,0.715-1.072,1.434-1.79,1.969l-0.895,0.715
		c-0.358,0.363-1.429,1.786-1.783,2.684l-0.718,1.25c0,0.176-0.183,0.536-0.183,0.719v-0.183c-0.177,0.183-0.177,0.362-0.177,0.183
		l-1.071,1.25c-0.183,0.18-0.365,1.077-0.535,1.613c0,0-0.177,0.362-0.177,0.535c-0.359,0.355-0.535,0.715-0.535,0.897
		c-0.353,0.353-0.718,1.25-0.895,1.966c0,0.362-0.176,0.535-0.176,0.535c-0.177,0.536-0.536,1.254-1.078,1.789
		c-0.183,0.18-0.359,0.536-0.359,1.077c-0.183,0.359,0,0.716,0.176,1.078c0.183,0.352,0.183,1.07,0.183,1.612
		c0,0.18-0.359,0.536-0.895,1.251l0.895,0.714c0.183,1.968,0.901,4.473,1.613,6.622c0.359,0.358,0,0.536-0.183,0.895
		c-2.318,1.078-3.932,0.535-5.538-1.786c-1.253-1.786-2.324-3.754-2.5-5.724c-0.542-1.965-0.183-4.47,0.529-6.256l1.253-5.009
		l0.535-0.535l0.366-0.715c0.17-0.715,0.712-1.787,0.712-1.969c1.071-0.715,1.253-1.43,1.429-1.786l1.437-1.786
		c0.719,0,0.895-0.173,1.078-0.355c0.183-1.078,1.254-2.501,1.966-3.4h-0.183c0,0,0.542-0.361,0.717-0.535l0.895-1.078
		c0.183-0.535,1.254-1.613,2.324-1.613c0-0.715,0.537-1.078,1.078-1.613c0.536-0.535,0.536-1.077,0.353-1.969l1.436,0.362
		l0.719-0.536c1.071-1.077,2.318-2.148,3.212-2.683c0,0,0.719-0.536,0.902-0.715c1.43-0.183,2.148-0.898,3.037-1.786l1.429-1.433
		c1.254-0.181,2.507-0.898,3.038-1.435c1.083-0.894,1.789-1.429,2.873-1.612l1.612-1.071c0.528-0.537,1.071-0.895,1.613-0.895
		c0,0,1.07-0.719,0.711-0.535c0.359-0.177,0.536-0.536,1.613-0.536c0.358-0.719,1.783-1.434,2.685-1.789
		c0.712-0.18,1.972-0.536,2.324-0.895c0.177,0,0.528,0,0.718-0.177c0.353-0.359,1.247-0.714,1.966-0.714l0.353-0.356l1.077-0.715
		h1.254c0.718-1.077,1.784-1.433,2.86-1.612l3.755-1.077c2.148-0.897,4.473-1.434,7.333-1.787c0.365,0,1.436,0,1.972-0.182
		c0,0,0.713-0.173,0.896-0.354c0.899,0.354,1.789,0.354,2.683,0.354h2.501c1.254,0.182,2.155,0.182,3.05,1.433v-0.179l0.352,0.715
		c2.149,0.362,3.05,1.077,4.474,1.785c0.177,0,0.353,0.356,0.535,0.356h-0.183l1.248,1.078h0.719v1.077
		c-0.178,0.535-0.178,0.535-0.359,0.535c0.9,0.716,1.253,1.434,1.253,1.786c0,0.719,0,2.147,0.177,2.86
		c0,0.533,0.176,1.965,0.354,2.68c0,0.183-0.178,0.363-0.178,0.537c0,0.717,0,0.89-0.176,1.253c0,0.18-0.177,0.535-0.177,0.894
		c0.177,1.077-0.183,2.324-0.541,3.041l-1.071,1.25c0.353,1.253,0,2.325-0.895,3.22c0,0.535-0.189,1.253-0.365,1.612
		c-0.535,2.147-1.789,5.005-2.861,6.794c-0.176,0.179-0.358,1.077-0.358,1.077c-0.536,1.43-1.07,3.219-3.036,5.005
		c-0.184,1.077-0.536,2.504-0.901,3.219l-0.528,0.535c-0.366,0.536-0.719,1.077-0.542,0.898c-0.354,0.535-0.712,1.077-0.712,1.43
		c0,0.177-0.178,0.356-0.719,0.892h0.183c-0.719,0.18-0.896,1.077-1.077,1.786c0,0.363-0.177,0.537-0.177,0.718l-1.077,2.684
		l-0.535,1.25c-0.359,0.715,0.176,1.433-1.254,1.613C109.197-86.143,109.021-86.143,109.021-86.143z"/>
	<path fill="#FFFFFF" d="M213.825-40.355c-0.534,0-0.534,0-0.717,1.253v0.183c-0.536,0.895-0.896,1.79-1.078,2.502
		c-1.075,1.612-0.536,3.042-0.354,4.114c0.89,1.436,0.89,3.578,2.503,4.472c-0.177,1.071,1.076,1.071,1.253,1.613
		c0.712,0.718,1.077,0.718,1.783,0c0.358,0,0.541-0.177,0.718-0.177c3.938-0.365,7.516-0.9,10.559-3.042
		c1.784-1.43,3.578-1.076,9.475-6.621c1.072,0,1.43-0.359,2.143-1.247c1.613-1.614,5.19-4.121,7.876-6.08
		c1.964-0.183,2.501-3.219,4.471-3.938c0.53-1.248,1.785-1.613,2.854-2.143v0.354l-1.431,3.043l-2.146,2.147l-8.769,9.123
		l-6.977,6.615h-0.529c-0.358,0-1.435,0-1.435,0.542c-0.178,0.358-1.072,1.429-1.79,1.789c-0.888,0.352-1.43,0.711-2.318,1.424
		c-3.225,1.436-5.902,2.506-9.476,3.226c-2.507,0.542-4.12,0.358-6.438-0.712c-1.437-0.536-3.048-1.254-3.402-3.22
		c-0.183-0.176-0.72-0.353-0.895-0.353c-2.154-0.365-2.508-1.965-3.226-3.767c0-0.353-0.359-0.711-0.53-0.711
		c-0.364-0.183-0.718,0-0.899,0.358c-1.078,1.79-3.043,2.685-4.114,4.473l-0.535,0.536l-1.071,0.536
		c-0.359,0.176-0.711,1.078-1.253,1.613c-0.178,0.176-1.071,0.176-1.79,0.536c-0.17,0.535-1.071,0.712-1.612,0.712
		c-0.712,0-0.896,0.358-0.896,0.894c0.184,0.366-0.175,0.536-0.717,0.536c-2.319,0-4.827,0.711-6.439-1.613
		c-0.895-1.078-2.319-2.149-2.854-3.762c-0.182-1.07-0.182-2.318,0-2.859c0-1.071,0.711-1.612,0.534-2.318
		c0-0.542,0.177-0.718,0.177-0.895c0.543-1.083,1.26-2.154,1.437-3.226c0.719-1.429,1.438-3.043,3.22-3.754
		c-0.184-1.26,0.183-2.155,0.902-3.043c1.611-2.324,3.576-4.656,5.536-6.798l3.938-3.578c1.43-1.248,4.466-1.248,6.079-1.072
		c2.685,0.353,4.296,2.495,6.438,3.579c0.183,0,0.183,0.353,0.536,0.353c1.964,0.718,2.33,2.684,3.049,3.931
		C215.615-43.568,215.975-40.531,213.825-40.355z M208.105-47.153c-0.717-0.712-1.613-1.253-2.508-0.712
		c-0.534,0.712-2.317-0.188-2.683,1.613c-1.069,0-1.966,1.071-2.502,1.783c-0.712,0.712-1.429,1.613-1.971,1.613
		c-1.073,0-1.248,0.183-1.248,0.711c-0.177,0.901-0.893,2.155-1.437,2.332c-0.895,0.353-0.895,0.711-1.072,1.613l-1.611,2.684
		c-1.79,3.036-3.035,6.438-3.938,10.016c0,0.353,0.183,0.895,0.902,0.895c0.352,0,0.527-0.536,0.711-0.536
		c2.148-1.612,4.832-2.325,6.619-3.937l1.073-0.53h0.188c-0.188-0.718,0-1.26,0.883-1.26c0.188,0,0.716,0,0.716-0.17
		c0.177-0.901,0.72-1.253,1.616-1.43c0.716-0.176,0.893-0.894,1.069-1.436c0-0.529,0.365-0.895,1.077-1.071
		c0.183,0,0.359-0.542,0.901-0.718c0.177-0.719,0.352-0.895,0.352-1.437c0.358-0.529,1.247-1.613,0.896-1.966
		c-0.176-1.966,1.077-3.037,1.253-4.473l0.895-3.402C208.281-46.97,208.281-47.153,208.105-47.153z M198.631-25.513
		c0,0.189-0.188,0.189-0.542,0.359c0.365,0,0.365,0.535,0.542,0.535c0-0.535,0.354-0.718,0.712-0.718
		C198.984-25.513,198.984-25.513,198.631-25.513z"/>
	<path fill="#FFFFFF" d="M276.965-27.654l-1.613-4.473c0-1.612,0.175-3.037-0.719-4.832c0.353-0.712,0.177-1.613-0.175-2.501
		c-0.19-0.365-0.544-0.718-0.72-1.254c-0.365-0.17-0.719-0.536-1.084-0.536l-2.677,1.078c0,0.17-0.183,0.359-0.183,0.536
		c-2.319,0.535-3.754,1.789-4.649,3.037l-1.613,1.788c-2.684,1.613-3.036,2.32-4.12,3.403l-0.896,1.07l-5.002,4.838
		c-0.176,0.53-0.542,1.072-0.899,1.431c-0.354,0.535-0.713,0.535-0.535,1.077c0.182,0.177-0.178,0.353-0.895,0.895
		c-0.896,0.718-1.613,1.612-2.508,2.154c-1.071,0.528-1.613,1.423-3.035,1.783c-1.433,0.353-2.862-0.182-4.299-1.43
		c-1.07-1.254-0.717-2.867-0.178-4.297c0.178-0.182,0.178-0.182,0.178-0.365l0.719-1.248c0.177-0.183,0.359-0.541,0.359-1.436
		c0.183-0.359,0.9-1.248,1.431-2.86c0.365-1.253,0.365-1.966,2.323-3.938c0,0,0.183,0,0.183-0.183l1.078-2.683
		c0-0.895,0.535-1.43,1.078-2.142l1.429-3.755l0.9-2.154l1.966-4.473l0.72-2.684h-0.178c0.353-0.711,0.353-1.612,1.612-2.86
		c0.178-0.173,0.536-0.535,0.354-0.891c0.183-0.715,0.535-1.25,1.077-1.612c0.359-1.078,0.717-1.078,2.501-0.36l0.36,0.535
		c1.075,0.536,1.612,1.613,1.252,2.322l-0.364,1.254c-0.537,0.53-1.248,1.789-0.895,1.612l-0.177,0.896l-0.719,1.077l0.183-0.183
		l-1.782,5.367c-0.359,0.719-0.541,1.254-0.541,1.613c0,0.365-0.53,0.718-0.713,0.894c0-0.176-0.719,1.79-0.719,2.508l-1.077,1.789
		l0.184-0.182l-0.536,2.324c-0.365,1.071-0.718,1.789-1.788,2.318v-0.177c-0.179,0.177-0.179,0.36,0,0.718
		c0,0.895-0.179,1.437-0.72,2.155l-0.175,0.177h0.175c0.177-0.177,0.72-0.895,1.071-1.078l1.253-1.613l0.536-0.535l3.036-2.86
		l0.543-0.359l0.529-0.712c0.365-0.188,0.541-0.188,0.717-0.188c0.183-0.176,0.72-0.176,0.72-0.353c0,0,0.718-1.072,1.077-1.437
		l0.535-0.535c0.535-0.712,1.077-1.078,1.614-1.253c0.175,0,0.533-0.354,0.716-0.53c0.53-0.542,1.071-1.083,1.783-1.083
		c0.36,0.183,0.36,0,0.537-0.719l2.508-1.246c-0.367,0,0.527-0.366,1.246-0.537c0.183,0,0.534-0.169,0.718,0
		c1.247,0,2.317,0,3.401,0.36c0.896,0,1.783,0.542,2.685,1.083c0.712,0.529,1.247,1.071,1.612,1.965
		c1.425,1.072,1.966,2.86,2.32,4.65c0.175,1.077,0.533,2.331,0.894,3.402c0.183,1.789,0.183,3.579,0.895,5.367
		c0.901,1.613,0.901,3.755,3.577,3.755c-0.176-2.508,7.868,1.248,0.537,3.395c-2.503,0.719-6.439-2.147-7.341-4.296L276.965-27.654z
		"/>
</g>
</svg>
